<svg width="66" height="18" viewBox="0 0 66 18" fill="none" xmlns="http://www.w3.org/2000/svg">
<path d="M5.05881 4.344C4.78881 7.296 3.34881 9.492 1.33281 11.166C1.06281 11.382 0.990812 11.688 0.990812 11.94C0.990812 12.534 1.44081 13.002 2.01681 13.002C2.43081 13.002 2.73681 12.894 3.04281 12.642C5.02281 10.986 7.12881 8.016 7.34481 4.344H9.64881C10.1348 4.344 10.5848 4.038 10.5848 3.318C10.5848 2.526 10.1348 2.22 9.64881 2.22H2.43081C1.94481 2.22 1.51281 2.544 1.51281 3.318C1.51281 4.02 1.94481 4.344 2.43081 4.344H5.05881ZM12.7808 15.162C12.7808 15.702 13.1408 16.062 13.8608 16.062C14.5808 16.062 14.9408 15.702 14.9408 15.162V1.752C14.9408 1.212 14.5808 0.852 13.8608 0.852C13.1408 0.852 12.7808 1.212 12.7808 1.752V15.162ZM6.82281 9.168C7.90281 10.482 8.37081 11.31 9.09081 12.534C9.25281 12.822 9.52281 13.002 9.93681 13.002C10.4948 13.002 11.2508 12.678 11.2508 11.868C11.2508 11.598 11.1608 11.4 10.9988 11.04C10.4768 9.924 9.46881 8.61 8.51481 7.692C8.31681 7.494 8.04681 7.404 7.77681 7.404C7.07481 7.404 6.62481 7.998 6.62481 8.628C6.62481 8.826 6.73281 9.042 6.82281 9.168ZM19.0254 3.948C19.0254 6 20.7894 6.954 23.4174 6.954C26.0454 6.954 27.7554 6 27.7554 3.948C27.7554 1.896 26.0454 0.942 23.4174 0.942C20.7894 0.942 19.0254 1.896 19.0254 3.948ZM30.0594 12.138V12.606C30.0594 13.146 30.4194 13.506 31.1394 13.506C31.8594 13.506 32.2194 13.146 32.2194 12.606V1.752C32.2194 1.212 31.8594 0.852 31.1394 0.852C30.4194 0.852 30.0594 1.212 30.0594 1.752V10.158H27.7554C27.1974 10.158 26.8374 10.41 26.8374 11.148C26.8374 11.886 27.1974 12.138 27.7554 12.138H30.0594ZM20.9334 15.36C20.9334 16.656 21.8334 17.178 23.1474 17.178H31.4634C32.0214 17.178 32.3814 16.89 32.3814 16.152C32.3814 15.414 32.0214 15.126 31.4634 15.126H23.7774C23.3994 15.126 23.2374 15 23.2374 14.622V13.038C23.2374 12.498 22.8054 12.138 22.0854 12.138C21.3654 12.138 20.9334 12.498 20.9334 13.038V15.36ZM19.2414 10.284C20.0874 10.284 21.2754 10.248 22.5534 10.14V11.508C22.5534 12.048 22.9674 12.408 23.6874 12.408C24.4074 12.408 24.8214 12.048 24.8214 11.508V9.924C26.2614 9.744 27.6834 9.474 28.7454 9.114C29.0694 9.006 29.3034 8.718 29.3034 8.214C29.3034 7.674 28.9614 6.972 28.0074 7.242C25.7754 7.854 23.0754 8.142 19.0974 8.214C18.4674 8.232 18.2154 8.628 18.2154 9.24C18.2154 9.942 18.5934 10.284 19.2414 10.284ZM25.5774 3.948C25.5774 4.686 24.8574 5.064 23.4174 5.064C21.9774 5.064 21.2034 4.686 21.2034 3.948C21.2034 3.21 21.9774 2.832 23.4174 2.832C24.8574 2.832 25.5774 3.21 25.5774 3.948ZM42.424 7.44C41.758 7.44 41.416 7.872 41.416 8.376C41.416 8.97 42.136 9.06 42.136 9.96C42.136 10.752 41.452 11.418 40.336 11.418C39.148 11.418 38.284 10.752 38.284 9.474C38.284 8.052 39.544 7.08 41.074 7.026H43.846C44.332 7.026 44.782 6.756 44.782 6.036C44.782 5.244 44.332 4.956 43.846 4.956H36.124C35.638 4.956 35.206 5.262 35.206 6.036C35.206 6.738 35.638 7.026 36.124 7.026H37.132C36.52 7.566 36.124 8.43 36.124 9.672C36.124 11.778 37.654 13.398 40.336 13.398C42.82 13.398 44.224 11.994 44.224 9.924C44.224 8.466 43.234 7.44 42.424 7.44ZM46.078 15.162C46.078 15.702 46.438 16.062 47.158 16.062C47.878 16.062 48.238 15.702 48.238 15.162V8.556H49.66C50.218 8.556 50.578 8.268 50.578 7.53C50.578 6.792 50.218 6.504 49.66 6.504H48.238V1.752C48.238 1.212 47.878 0.852 47.158 0.852C46.438 0.852 46.078 1.212 46.078 1.752V15.162ZM37.78 3.372C38.824 3.642 40.462 3.768 41.758 3.768C42.226 3.768 42.748 3.498 42.748 2.634C42.748 1.95 42.334 1.698 41.866 1.698C40.696 1.698 39.508 1.572 38.284 1.338C37.636 1.212 37.114 1.68 37.114 2.4C37.114 2.886 37.33 3.246 37.78 3.372ZM63.5366 15.162C63.5366 15.702 63.8966 16.062 64.6166 16.062C65.3366 16.062 65.6966 15.702 65.6966 15.162V1.752C65.6966 1.212 65.3366 0.852 64.6166 0.852C63.8966 0.852 63.5366 1.212 63.5366 1.752V15.162ZM54.8966 13.02C57.5246 11.868 60.8546 9.006 61.0526 4.506C61.1066 3.426 60.6566 2.49 59.2706 2.49H53.9786C53.4926 2.49 53.0606 2.832 53.0606 3.588C53.0606 4.344 53.4926 4.614 53.9786 4.614H58.3346C58.6226 4.614 58.6766 4.776 58.6586 4.992C58.5506 7.53 56.4986 9.906 53.3666 11.292C53.0606 11.436 52.8986 11.706 52.8986 12.12C52.8986 12.75 53.3306 13.272 53.8886 13.272C54.2666 13.272 54.5366 13.182 54.8966 13.02Z" fill="#CCCCCC"/>
</svg>
