<svg width="28" height="26" viewBox="0 0 28 26" fill="none" xmlns="http://www.w3.org/2000/svg">
<path d="M13.9946 1C6.81992 1 1 6.37674 1 13.0057C1 15.6367 1.93205 18.0608 3.48186 20.0369C3.54689 20.7147 3.70945 23.0354 2.91829 24.3566C2.74488 24.6553 2.9508 25.023 3.27594 24.9885C4.26218 24.8851 6.35389 24.4256 7.45935 23.7133C7.56773 23.6443 7.63276 23.5754 7.69779 23.495C9.5619 24.46 11.7078 25 14.0054 25C21.1801 25 27 19.6233 27 12.9943C27 6.36525 21.1801 1 13.9946 1Z" stroke="#9D9D9D" stroke-width="1.5" stroke-miterlimit="10" stroke-linecap="round" stroke-linejoin="round"/>
<path d="M8.65172 14.4931C9.37598 14.4931 9.96309 13.935 9.96309 13.2465C9.96309 12.5581 9.37598 12 8.65172 12C7.92746 12 7.34033 12.5581 7.34033 13.2465C7.34033 13.935 7.92746 14.4931 8.65172 14.4931Z" fill="#9D9D9D"/>
<path d="M13.9945 14.4931C14.7187 14.4931 15.3059 13.935 15.3059 13.2465C15.3059 12.5581 14.7187 12 13.9945 12C13.2702 12 12.6831 12.5581 12.6831 13.2465C12.6831 13.935 13.2702 14.4931 13.9945 14.4931Z" fill="#9D9D9D"/>
<path d="M19.348 14.4931C20.0722 14.4931 20.6594 13.935 20.6594 13.2465C20.6594 12.5581 20.0722 12 19.348 12C18.6237 12 18.0366 12.5581 18.0366 13.2465C18.0366 13.935 18.6237 14.4931 19.348 14.4931Z" fill="#9D9D9D"/>
</svg>
