<svg width="13" height="12" viewBox="0 0 13 12" fill="none" xmlns="http://www.w3.org/2000/svg">
<path d="M4.625 11.8334C4.45924 11.8334 4.30027 11.772 4.18306 11.6626C4.06585 11.5532 4 11.4048 4 11.2501V9.50008H1.5C1.16848 9.50008 0.850537 9.37716 0.616116 9.15837C0.381696 8.93958 0.25 8.64283 0.25 8.33341V1.33341C0.25 1.024 0.381696 0.727249 0.616116 0.508457C0.850537 0.289664 1.16848 0.166748 1.5 0.166748H11.5C11.8315 0.166748 12.1495 0.289664 12.3839 0.508457C12.6183 0.727249 12.75 1.024 12.75 1.33341V8.33341C12.75 8.64283 12.6183 8.93958 12.3839 9.15837C12.1495 9.37716 11.8315 9.50008 11.5 9.50008H7.6875L5.375 11.6642C5.25 11.7751 5.09375 11.8334 4.9375 11.8334H4.625ZM5.25 8.33341V10.1301L7.175 8.33341H11.5V1.33341H1.5V8.33341H5.25Z" fill="#888888"/>
</svg>
