<svg width="83" height="18" viewBox="0 0 83 18" fill="none" xmlns="http://www.w3.org/2000/svg">
    <defs>
        <linearGradient id="paint0_linear_530_268" x1="16.4063" y1="-3.98649" x2="51.5197"
            y2="14.5413" gradientUnits="userSpaceOnUse">
            <stop stop-color="#FF7CE8" />
            <stop offset="1" stop-color="#6393E7" />
        </linearGradient>
    </defs>
    <path
        d="M5.31 6.026C6.894 6.026 7.506 6.908 7.506 8.078V8.258H3.042V8.132C3.042 6.908 3.798 6.026 5.31 6.026ZM5.346 4.154C2.538 4.154 0.828 5.774 0.828 8.888V9.356C0.828 12.488 2.502 14.072 5.364 14.072C6.822 14.072 7.866 13.838 8.766 13.388C9.234 13.154 9.36 12.632 9.144 12.128C8.928 11.624 8.424 11.462 7.938 11.678C7.146 12.038 6.462 12.182 5.454 12.182C3.852 12.182 3.042 11.264 3.042 9.986V9.95H8.154C9.306 9.95 9.684 9.59 9.684 8.456V8.42C9.684 5.702 7.92 4.154 5.346 4.154ZM19.2246 4.334C18.7026 4.172 18.0186 4.244 17.7846 4.946L15.5526 11.39H15.5346L13.2846 4.946C13.0326 4.208 12.3666 4.172 11.8086 4.37C11.2506 4.568 10.8546 5.072 11.1066 5.72L14.3826 13.964L13.4106 16.304C13.1946 16.844 13.4286 17.312 14.0046 17.546C14.5806 17.78 15.1746 17.672 15.4086 17.078L19.9086 5.648C20.1426 5.036 19.7826 4.496 19.2246 4.334ZM25.7534 6.026C27.3374 6.026 27.9494 6.908 27.9494 8.078V8.258H23.4854V8.132C23.4854 6.908 24.2414 6.026 25.7534 6.026ZM25.7894 4.154C22.9814 4.154 21.2714 5.774 21.2714 8.888V9.356C21.2714 12.488 22.9454 14.072 25.8074 14.072C27.2654 14.072 28.3094 13.838 29.2094 13.388C29.6774 13.154 29.8034 12.632 29.5874 12.128C29.3714 11.624 28.8674 11.462 28.3814 11.678C27.5894 12.038 26.9054 12.182 25.8974 12.182C24.2954 12.182 23.4854 11.264 23.4854 9.986V9.95H28.5974C29.7494 9.95 30.1274 9.59 30.1274 8.456V8.42C30.1274 5.702 28.3634 4.154 25.7894 4.154ZM40.1359 4.154C37.5439 4.154 36.3019 5.45 36.3019 6.89V6.962C36.3019 8.708 37.1479 9.536 39.6679 10.022C41.5579 10.382 41.7379 10.58 41.7379 11.174V11.21C41.7379 11.75 41.3239 12.164 40.0819 12.164C39.1999 12.164 38.2459 11.894 37.4899 11.498C36.9679 11.228 36.4639 11.426 36.2119 11.93C35.9779 12.416 36.0499 12.992 36.5539 13.262C37.4719 13.766 38.6959 14.072 40.0999 14.072C42.5119 14.072 44.0419 12.83 44.0419 11.21V11.138C44.0419 9.32 43.2679 8.564 40.4059 8.006C38.7499 7.682 38.5699 7.502 38.5699 6.926V6.89C38.5699 6.44 39.0199 6.044 40.3879 6.044C40.9819 6.044 41.7019 6.206 42.2419 6.458C42.7639 6.692 43.1959 6.512 43.4119 6.062C43.6639 5.522 43.5379 5.036 42.9439 4.712C42.2779 4.352 41.3239 4.154 40.1359 4.154ZM49.9764 4.154C47.1324 4.154 45.4764 5.72 45.4764 8.888V9.338C45.4764 12.506 47.1504 14.072 49.9764 14.072C51.3084 14.072 52.4784 13.748 53.2164 13.28C53.7204 12.956 53.7564 12.362 53.4864 11.876C53.2164 11.39 52.6764 11.282 52.1904 11.552C51.5784 11.894 50.8404 12.074 49.9944 12.074C48.5724 12.074 47.7624 11.12 47.7624 9.338V8.888C47.7624 7.016 48.5004 6.134 49.9764 6.134C50.7864 6.134 51.4164 6.296 52.0284 6.656C52.5144 6.944 52.9824 6.764 53.2704 6.35C53.5944 5.882 53.5224 5.27 53.0544 4.964C52.3704 4.514 51.4164 4.154 49.9764 4.154ZM60.2966 4.154C59.1806 4.154 58.2086 4.82 57.7046 5.81H57.6686V5.18C57.6686 4.55 57.1466 4.262 56.5706 4.262C56.0126 4.262 55.4906 4.55 55.4906 5.18V13.082C55.4906 13.73 56.0486 14.036 56.6246 14.036C57.2186 14.036 57.7586 13.73 57.7586 13.082V8.42C57.7586 7.214 58.6046 6.314 59.7026 6.314C60.0086 6.314 60.2966 6.404 60.6026 6.458C61.1426 6.566 61.6106 6.152 61.7366 5.486C61.8266 4.982 61.7006 4.586 61.2686 4.352C61.0526 4.226 60.7106 4.154 60.2966 4.154ZM64.6415 4.262C64.0655 4.262 63.5075 4.568 63.5075 5.216V13.082C63.5075 13.73 64.0655 14.036 64.6415 14.036C65.2355 14.036 65.7755 13.73 65.7755 13.082V5.216C65.7755 4.568 65.2355 4.262 64.6415 4.262ZM64.6415 0.536C63.8495 0.536 63.2195 1.148 63.2195 1.904C63.2195 2.66 63.8495 3.272 64.6415 3.272C65.4335 3.272 66.0635 2.66 66.0635 1.904C66.0635 1.148 65.4335 0.536 64.6415 0.536ZM73.4296 4.154C72.1696 4.154 71.1976 4.712 70.6756 5.684V5.18C70.6756 4.55 70.1536 4.262 69.5956 4.262C69.0556 4.262 68.5336 4.55 68.5336 5.18V13.082C68.5336 13.73 69.0916 14.036 69.6676 14.036C70.2616 14.036 70.8016 13.73 70.8016 13.082V8.204C70.8016 6.836 71.5576 6.17 72.6196 6.17C73.6276 6.17 74.4196 6.656 74.4196 8.33V13.082C74.4196 13.73 74.9776 14.036 75.5536 14.036C76.1476 14.036 76.6876 13.73 76.6876 13.082V8.294C76.6876 6.638 77.6236 6.17 78.5056 6.17C79.4596 6.17 80.3056 6.584 80.3056 8.366V13.082C80.3056 13.73 80.8636 14.036 81.4396 14.036C82.0336 14.036 82.5736 13.73 82.5736 13.082V7.898C82.5736 5.414 80.9896 4.154 79.1536 4.154C77.6596 4.154 76.7776 4.676 76.0756 5.666C75.7156 4.766 74.6536 4.154 73.4296 4.154Z"
        fill="url(#paint0_linear_530_268)" />

</svg>
