<svg width="24" height="26" viewBox="0 0 24 26" fill="none" xmlns="http://www.w3.org/2000/svg">
<defs>
<linearGradient id="paint0_linear" x1="9.58889" y1="2.13656" x2="22.747" y2="14.8616" gradientUnits="userSpaceOnUse">
<stop stop-color="#FF7CE8"/>
<stop offset="1" stop-color="#6393E7"/>
</linearGradient>
</defs>
<path d="M6.9948 8.89055L15.7926 17.9877C15.8805 18.0759 15.9457 18.1854 15.9821 18.3064C16.0185 18.4273 16.0249 18.5558 16.0009 18.68C15.9769 18.8042 15.9231 18.9202 15.8445 19.0173C15.766 19.1145 15.6651 19.1897 15.5511 19.2361L1.64208 25.1289C1.42486 25.2207 1.18624 25.2441 0.956181 25.1963C0.726119 25.1484 0.51486 25.0313 0.348918 24.8597C0.182976 24.6881 0.0697438 24.4697 0.02343 24.2318C-0.0228837 23.9939 -0.000217096 23.7471 0.0885896 23.5225L5.78742 9.14023C5.83231 9.02238 5.90506 8.91806 5.99903 8.8368C6.093 8.75554 6.20517 8.69995 6.32529 8.67511C6.44541 8.65027 6.56963 8.65698 6.68659 8.69461C6.80356 8.73225 6.90952 8.79962 6.9948 8.89055Z" fill="#FFD38D"/>
<path d="M19.9621 15.8404C21.0581 15.1692 21.9885 14.2442 22.6802 13.1382C23.3719 12.0322 23.806 10.7753 23.9485 9.46643C24.0909 8.15756 23.9377 6.83237 23.5009 5.59509C23.0641 4.3578 22.3557 3.24214 21.4314 2.33588C20.5071 1.42962 19.392 0.75748 18.1739 0.372278C16.9558 -0.0129238 15.6679 -0.100685 14.4115 0.115941C13.155 0.332566 11.9643 0.84766 10.933 1.62069C9.90166 2.39372 9.05783 3.40361 8.46787 4.57096C7.62378 4.62205 6.82734 4.99235 6.23019 5.61134C5.71416 6.14318 5.37229 6.82887 5.25264 7.57202C5.13299 8.31517 5.24158 9.07841 5.56315 9.75444C5.88471 10.4305 6.40308 10.9853 7.04537 11.341C7.68767 11.6966 8.4216 11.8351 9.144 11.7371C9.0755 12.283 9.1291 12.8377 9.30067 13.3588C9.47223 13.8798 9.75717 14.3531 10.1336 14.7423C10.5099 15.1315 10.9677 15.4261 11.4716 15.6035C11.9754 15.7809 12.512 15.8363 13.0398 15.7655C12.9771 16.2702 13.0185 16.783 13.1612 17.27C13.3039 17.757 13.5448 18.2072 13.8679 18.591C14.191 18.9748 14.5891 19.2835 15.0359 19.4968C15.4827 19.7101 15.9681 19.8232 16.4602 19.8285C16.9523 19.8338 17.4399 19.7313 17.891 19.5277C18.342 19.3242 18.7462 19.0241 19.077 18.6474C19.4079 18.2706 19.6578 17.8257 19.8103 17.3419C19.9629 16.8581 20.0146 16.3464 19.9621 15.8404Z" fill="url(#paint0_linear)"/>
<path d="M9.35293 16.7725L5.28809 18.537" stroke="#CC9B54" stroke-width="0.75" stroke-miterlimit="10" stroke-linecap="round"/>
<path d="M10.8585 18.3206L4.15356 21.3751" stroke="#CC9B54" stroke-width="0.75" stroke-miterlimit="10" stroke-linecap="round"/>
<path d="M7.32471 15.6321L9.40945 19.8186" stroke="#CC9B54" stroke-width="0.75" stroke-miterlimit="10" stroke-linecap="round"/>
<path d="M5.90015 16.3979L7.98489 20.5845" stroke="#CC9B54" stroke-width="0.75" stroke-miterlimit="10" stroke-linecap="round"/>
<path d="M12.6937 3.30578C12.6415 3.29908 12.5911 3.28163 12.5455 3.25447C12.4998 3.22731 12.4599 3.19099 12.4281 3.14764C12.3627 3.05902 12.3337 2.94738 12.3473 2.83682C12.3608 2.72625 12.4159 2.62565 12.5006 2.5567C13.1906 2.04057 13.9985 1.71858 14.8451 1.62229C15.6917 1.52599 16.548 1.65869 17.3301 2.00738C17.4304 2.05153 17.5097 2.13508 17.5504 2.23966C17.5912 2.34424 17.5901 2.46126 17.5474 2.56501C17.5047 2.66876 17.4239 2.75073 17.3228 2.79287C17.2216 2.83502 17.1084 2.8339 17.0081 2.78975C16.3582 2.49631 15.646 2.38195 14.9406 2.4578C14.2353 2.53365 13.5611 2.79711 12.9835 3.22254C12.943 3.25574 12.8965 3.2802 12.8468 3.2945C12.797 3.3088 12.745 3.31264 12.6937 3.30578Z" fill="white"/>

</svg>
