<svg width="35" height="21" viewBox="0 0 35 21" fill="none" xmlns="http://www.w3.org/2000/svg">
<path d="M3.81743 6.65746C3.34289 6.65746 2.85253 6.27052 2.85253 5.53631C2.85253 4.78226 3.34289 4.47469 3.81743 4.47469H8.10414C7.98287 3.00628 7.11815 2.23734 5.52052 2.23734C3.88071 2.23734 2.39908 2.97155 2.39908 5.55616C2.39908 8.20029 3.85434 8.99403 5.80524 8.99403C6.83342 8.99403 7.58742 8.68645 8.22541 8.31935C8.45214 8.18541 8.67886 8.10603 8.92141 8.10603C9.49613 8.10603 9.98649 8.55251 9.98649 9.14781C9.98649 9.57445 9.86522 9.80265 9.55413 10.0358C9.02159 10.4624 7.85105 11.1768 5.79997 11.1768C1.6609 11.1768 0 8.76583 0 5.56112C0 2.23734 1.72417 0 5.47834 0C8.28868 0 10.3609 1.79583 10.3609 5.02038C10.3609 5.86869 9.99177 6.66243 8.82123 6.66243H3.81743V6.65746Z" fill="#CCCCCC"/>
<path d="M20.5161 0.773807C20.6585 0.406704 21.0065 0.118975 21.5443 0.118975C22.098 0.118975 22.9996 0.406704 22.9996 1.1806C22.9996 1.33438 22.9152 1.6618 22.8361 1.83543L18.8763 11.0229C17.7058 13.5728 16.0449 14.5352 14.5053 14.5352C13.8884 14.5352 13.2556 14.4757 12.76 14.2822C12.3487 14.1284 12.0007 13.7613 12.0007 13.2801C12.0007 12.4715 12.5122 12.0846 13.0289 12.0846C13.2135 12.0846 13.3347 12.1242 13.4982 12.1639C13.804 12.2433 14.0518 12.3177 14.4209 12.3177C15.1591 12.3177 15.8973 11.8167 16.4931 10.3681L16.6143 10.0804L12.7389 1.81559C12.6387 1.60227 12.5965 1.42864 12.5965 1.19548C12.5965 0.654747 13.1291 0.114014 13.9727 0.114014C14.5053 0.114014 14.9165 0.367017 15.1433 0.887907L17.8903 7.33702L20.5161 0.773807Z" fill="#CCCCCC"/>
<path d="M28.4514 6.65746C27.9768 6.65746 27.4865 6.27052 27.4865 5.53631C27.4865 4.78226 27.9768 4.47469 28.4514 4.47469H32.7381C32.6168 3.00628 31.7521 2.23734 30.1545 2.23734C28.5146 2.23734 27.033 2.97155 27.033 5.55616C27.033 8.20029 28.4883 8.99403 30.4392 8.99403C31.4674 8.99403 32.2213 8.68645 32.8593 8.31935C33.0861 8.18541 33.3128 8.10603 33.5553 8.10603C34.1301 8.10603 34.6204 8.55251 34.6204 9.14781C34.6204 9.57445 34.4992 9.80265 34.1881 10.0358C33.6555 10.4624 32.485 11.1768 30.4339 11.1768C26.2896 11.1768 24.6287 8.76583 24.6287 5.56112C24.6392 2.23734 26.3634 0 30.1175 0C32.9279 0 35.0001 1.79583 35.0001 5.02038C35.0001 5.86869 34.631 6.66243 33.4604 6.66243H28.4514V6.65746Z" fill="#CCCCCC"/>
<path d="M3.26381 17.5025C3.40617 17.5819 3.49581 17.6811 3.49581 17.8101C3.49581 18.0333 3.33235 18.2119 3.12672 18.2119C3.03708 18.2119 2.98435 18.1921 2.94744 18.1871C2.77872 18.1028 2.53617 17.9986 2.23036 17.9986C1.92981 17.9986 1.64509 18.0829 1.64509 18.3211C1.64509 18.5592 1.89818 18.6584 2.24618 18.7229L2.58363 18.7923C3.20053 18.9164 3.6118 19.2487 3.6118 19.8391C3.6118 20.484 3.16363 20.9999 2.10909 20.9999C1.61345 20.9999 1.218 20.9106 0.922727 20.7221C0.801455 20.6576 0.73291 20.5485 0.73291 20.4245C0.73291 20.1367 0.938546 19.9929 1.12309 19.9929C1.17054 19.9929 1.22854 19.9978 1.28127 20.0326C1.47109 20.1467 1.85072 20.2508 2.09854 20.2508C2.57836 20.2508 2.83145 20.1169 2.83145 19.8689C2.83145 19.6357 2.58363 19.5166 2.18818 19.4422L1.84018 19.3728C1.18109 19.2438 0.812001 18.8965 0.812001 18.2814C0.812001 17.6117 1.38145 17.2644 2.24618 17.2644C2.72599 17.2644 3.04235 17.3785 3.26381 17.5025Z" fill="#CCCCCC"/>
<path d="M10.7615 17.5372C10.8564 17.5868 10.9408 17.6909 10.9408 17.8547C10.9408 18.0035 10.7984 18.2069 10.5981 18.2069C10.5453 18.2069 10.4821 18.2019 10.4083 18.1672C10.2343 18.0779 10.0813 18.0184 9.79135 18.0184C9.28517 18.0184 8.80536 18.2317 8.80536 19.0998C8.80536 19.9729 9.28517 20.2458 9.87571 20.2458C10.1288 20.2458 10.3081 20.1863 10.4768 20.0722C10.5612 20.0226 10.6297 20.0077 10.6983 20.0077C10.925 20.0077 11.0568 20.2458 11.0568 20.3797C11.0568 20.4938 11.0357 20.5732 10.8828 20.6873C10.6508 20.8758 10.3081 20.985 9.84935 20.985C8.8159 20.985 8.00391 20.4442 8.00391 19.0849C8.00391 17.7753 8.80536 17.2544 9.73862 17.2544C10.2659 17.2643 10.5506 17.3883 10.7615 17.5372Z" fill="#CCCCCC"/>
<path d="M16.4616 17.5721V17.6763C16.5986 17.463 17.0257 17.3042 17.3895 17.3042C17.6954 17.3042 17.9906 17.3538 18.191 17.4679C18.3228 17.5473 18.365 17.6416 18.365 17.7954C18.365 17.964 18.249 18.1823 18.0223 18.1823C17.8852 18.1823 17.7797 18.093 17.3632 18.093C16.9941 18.093 16.5828 18.3063 16.4668 18.5941V20.6826C16.4668 20.9009 16.2823 20.9802 16.0608 20.9802C15.8288 20.9802 15.6443 20.9009 15.6443 20.6826V17.5721C15.6443 17.3588 15.8288 17.2844 16.0608 17.2844C16.2454 17.2794 16.4616 17.3588 16.4616 17.5721Z" fill="#CCCCCC"/>
<path d="M23.4635 15.8804C23.7535 15.8804 23.975 16.0887 23.975 16.3566C23.975 16.6195 23.7483 16.8229 23.4635 16.8229C23.1683 16.8229 22.9574 16.6245 22.9574 16.3566C22.9521 16.0887 23.1683 15.8804 23.4635 15.8804ZM23.0417 17.5869C23.0417 17.3984 23.1841 17.2793 23.453 17.2793C23.7219 17.2793 23.8801 17.4034 23.8801 17.5869V20.6428C23.8801 20.8313 23.7272 20.9603 23.4635 20.9603C23.1999 20.9603 23.047 20.8313 23.047 20.6428V17.5869H23.0417Z" fill="#CCCCCC"/>
<path d="M34.0562 18.4946V20.6923C34.0562 20.9205 33.8664 20.9751 33.6449 20.9751C33.4182 20.9751 33.2336 20.9155 33.2336 20.6923V18.6236C33.2336 18.2764 33.0438 18.0382 32.6167 18.0382C32.1844 18.0382 31.9735 18.2764 31.9735 18.579V20.6923C31.9735 20.9205 31.7889 20.9899 31.5675 20.9899C31.3407 20.9899 31.1562 20.9205 31.1562 20.6923V18.6236C31.1562 18.2813 30.9506 18.0283 30.5129 18.0283C30.0647 18.0283 29.8802 18.2813 29.8802 18.579V20.6923C29.8802 20.8907 29.7009 20.9899 29.4637 20.9899C29.2264 20.9899 29.0471 20.8907 29.0471 20.6923V17.5967C29.0471 17.3784 29.2369 17.2991 29.4584 17.2991C29.6798 17.2991 29.8855 17.3784 29.8855 17.5868C30.07 17.3884 30.3389 17.2991 30.7291 17.2991C31.0877 17.2991 31.4884 17.4628 31.694 17.7059C31.926 17.4479 32.2793 17.2991 32.7696 17.2991C33.5236 17.2991 34.0562 17.7704 34.0562 18.4946Z" fill="#CCCCCC"/>
</svg>
