<svg width="93" height="92" viewBox="0 0 93 92" fill="none" xmlns="http://www.w3.org/2000/svg">
    <defs>
        <linearGradient id="paint0_linear_530_265" x1="-0.125263" y1="63.7602" x2="57.9166"
            y2="63.8884" gradientUnits="userSpaceOnUse">
            <stop offset="0.00106246" stop-color="#6393E7" />
            <stop offset="1" stop-color="#898DE7" />
        </linearGradient>
        <linearGradient id="paint1_linear_530_265" x1="53.8117" y1="56.9699" x2="52.9974"
            y2="17.1666" gradientUnits="userSpaceOnUse">
            <stop offset="0.00106246" stop-color="#6393E7" />
            <stop offset="1" stop-color="#FF7CE8" />
        </linearGradient>
    </defs>
    <path
        d="M23.7683 37.1441L4.49657 80.2764C2.46018 84.8542 7.21263 89.5284 11.9171 87.5429L56.2437 68.9657"
        stroke="url(#paint0_linear_530_265)" stroke-width="7" stroke-miterlimit="10" />
    <path
        d="M73.4709 62.2424C76.6286 60.722 79.5994 58.692 82.2162 56.1521C95.3838 43.3713 95.4297 22.6189 82.3186 9.78007C69.2076 -3.05881 47.9214 -3.10585 34.7538 9.67495C31.7601 12.5806 29.4759 15.8951 27.8387 19.4351C24.33 19.1015 20.7136 20.2544 18.034 22.8552C13.2401 27.5083 13.2234 35.0639 17.9967 39.7381C22.77 44.4124 30.52 44.4295 35.3139 39.7764L35.564 40.0213C30.7701 44.6744 30.7534 52.23 35.5267 56.9043C40.3001 61.5785 48.05 61.5956 52.844 56.9425L53.0941 57.1875C48.3001 61.8406 48.2834 69.3961 53.0568 74.0704C57.8301 78.7446 65.58 78.7617 70.374 74.1086C73.6608 70.8778 74.6945 66.2978 73.4709 62.2424Z"
        fill="url(#paint1_linear_530_265)" />

</svg>
