<svg width="12" height="12" viewBox="0 0 12 12" fill="none" xmlns="http://www.w3.org/2000/svg">
<path d="M10.6667 3.66675H7.39299L8.04807 1.70266C8.1659 1.348 8.1064 0.954831 7.88765 0.651498C7.6689 0.348165 7.31424 0.166748 6.94032 0.166748H5.99999C5.82674 0.166748 5.66282 0.243748 5.5514 0.376748L2.80974 3.66675H1.33332C0.689906 3.66675 0.166656 4.19 0.166656 4.83342V10.0834C0.166656 10.7268 0.689906 11.2501 1.33332 11.2501H9.09574C9.33309 11.2493 9.56461 11.1765 9.7597 11.0413C9.95478 10.9061 10.1042 10.7149 10.1883 10.4929L11.7966 6.20483C11.821 6.13933 11.8334 6.06998 11.8333 6.00008V4.83342C11.8333 4.19 11.3101 3.66675 10.6667 3.66675ZM1.33332 4.83342H2.49999V10.0834H1.33332V4.83342ZM10.6667 5.8945L9.09574 10.0834H3.66666V4.46125L6.27299 1.33341H6.94149L6.03032 4.06516C6.00074 4.15285 5.99249 4.24632 6.00625 4.33783C6.02002 4.42934 6.0554 4.51625 6.10946 4.59136C6.16352 4.66646 6.23471 4.7276 6.31711 4.76969C6.39952 4.81179 6.49078 4.83363 6.58332 4.83342H10.6667V5.8945Z" fill="#61C680"/>
</svg>
