<svg width="17" height="17" viewBox="0 0 17 17" fill="none" xmlns="http://www.w3.org/2000/svg">
<path d="M5.40754 5.73188L11.2367 11.5971C11.295 11.6539 11.3382 11.7245 11.3623 11.8025C11.3864 11.8805 11.3907 11.9633 11.3748 12.0434C11.3589 12.1235 11.3232 12.1983 11.2712 12.2609C11.2191 12.3236 11.1523 12.372 11.0767 12.402L1.86096 16.2012C1.71703 16.2604 1.55893 16.2755 1.40649 16.2446C1.25406 16.2138 1.11408 16.1383 1.00413 16.0276C0.894185 15.917 0.81916 15.7762 0.788473 15.6228C0.757787 15.4694 0.772805 15.3103 0.831647 15.1655L4.60756 5.89286C4.6373 5.81687 4.68551 5.74962 4.74777 5.69723C4.81003 5.64484 4.88435 5.60899 4.96394 5.59298C5.04352 5.57696 5.12583 5.58129 5.20333 5.60555C5.28083 5.62982 5.35104 5.67325 5.40754 5.73188Z" fill="#FFD38D"/>
<path d="M6.97012 10.8135L4.27686 11.9511" stroke="#CC9B54" stroke-width="0.75" stroke-miterlimit="10" stroke-linecap="round"/>
<path d="M7.96746 11.812L3.5249 13.7814" stroke="#CC9B54" stroke-width="0.75" stroke-miterlimit="10" stroke-linecap="round"/>
<path d="M5.62598 10.0786L7.00728 12.7778" stroke="#CC9B54" stroke-width="0.75" stroke-miterlimit="10" stroke-linecap="round"/>
<path d="M4.68213 10.5723L6.06343 13.2714" stroke="#CC9B54" stroke-width="0.75" stroke-miterlimit="10" stroke-linecap="round"/>
<path d="M9.18339 2.13142C9.14877 2.1271 9.11537 2.11585 9.08514 2.09834C9.05492 2.08083 9.02848 2.05741 9.00739 2.02946C8.96408 1.97233 8.94484 1.90035 8.95382 1.82907C8.9628 1.75778 8.99928 1.69292 9.05539 1.64847C9.51263 1.3157 10.0479 1.10811 10.6089 1.04603C11.1698 0.983943 11.7371 1.0695 12.2553 1.2943C12.3218 1.32277 12.3743 1.37664 12.4013 1.44406C12.4283 1.51149 12.4276 1.58694 12.3993 1.65383C12.371 1.72072 12.3175 1.77356 12.2505 1.80074C12.1835 1.82791 12.1085 1.82718 12.042 1.79872C11.6114 1.60953 11.1395 1.5358 10.6721 1.5847C10.2048 1.6336 9.75806 1.80347 9.37538 2.07775C9.34857 2.09916 9.31777 2.11493 9.28479 2.12415C9.25181 2.13336 9.21733 2.13584 9.18339 2.13142Z" fill="white"/>
<defs>
<linearGradient id="paint0_linear_595:538" x1="7.12662" y1="1.3775" x2="15.6146" y2="9.8134" gradientUnits="userSpaceOnUse">
<stop stop-color="#FF7CE8"/>
<stop offset="1" stop-color="#6393E7"/>
</linearGradient>
</defs>
    <path d="M13.9997 10.2128C14.7258 9.78 15.3423 9.18363 15.8006 8.47056C16.2589 7.75748 16.5466 6.94714 16.6409 6.10327C16.7353 5.25941 16.6338 4.40502 16.3444 3.60731C16.055 2.8096 15.5856 2.0903 14.9732 1.50601C14.3608 0.921717 13.6219 0.488368 12.8149 0.240018C12.0078 -0.00833233 11.1544 -0.0649143 10.3219 0.0747503C9.48946 0.214415 8.70052 0.54651 8.01719 1.0449C7.33385 1.5433 6.77475 2.19441 6.38385 2.94702C5.82458 2.97997 5.29688 3.21871 4.90122 3.61779C4.55931 3.96068 4.3328 4.40277 4.25352 4.88189C4.17425 5.36102 4.24619 5.85311 4.45925 6.28896C4.67231 6.72482 5.01577 7.08254 5.44134 7.31183C5.86691 7.54112 6.3532 7.63045 6.83184 7.56727C6.78646 7.91917 6.82197 8.27685 6.93565 8.61277C7.04932 8.94868 7.23812 9.25384 7.4875 9.50476C7.73688 9.75568 8.04018 9.94565 8.37403 10.06C8.70788 10.1744 9.06337 10.2101 9.41312 10.1645C9.37156 10.4899 9.39897 10.8204 9.49354 11.1344C9.5881 11.4484 9.74768 11.7387 9.96178 11.9861C10.1759 12.2336 10.4396 12.4326 10.7357 12.5702C11.0317 12.7077 11.3533 12.7805 11.6794 12.784C12.0055 12.7874 12.3285 12.7213 12.6274 12.5901C12.9262 12.4588 13.1941 12.2654 13.4132 12.0225C13.6324 11.7796 13.798 11.4927 13.8991 11.1808C14.0002 10.8689 14.0345 10.539 13.9997 10.2128Z" fill="url(#paint0_linear_595:538)"/>
</svg>
