<svg width="26" height="26" viewBox="0 0 26 26" fill="none" xmlns="http://www.w3.org/2000/svg">
<path d="M18.6403 24.3598H17.6308H15.6117H11.5735H3.49705C2.1259 24.3598 1 23.2774 1 21.9351V4.06341C1 2.37474 2.41574 1 4.15476 1H18.981C20.72 1 22.1358 2.37474 22.1358 4.06341V12.9992V15.2332" stroke="#9D9D9D" stroke-width="1.5" stroke-miterlimit="10"/>
<path d="M4.85693 6.84521H17.7212" stroke="#9D9D9D" stroke-width="1.5" stroke-miterlimit="10" stroke-linecap="round"/>
<path d="M4.85693 11.8354H17.7212" stroke="#9D9D9D" stroke-width="1.5" stroke-miterlimit="10" stroke-linecap="round"/>
<path d="M4.85693 16.8149H11.3002" stroke="#9D9D9D" stroke-width="1.5" stroke-miterlimit="10" stroke-linecap="round"/>
<path d="M22.0551 15.0728C21.0418 15.0923 20.1596 15.6357 19.6606 16.4434C19.1312 15.6553 18.2289 15.1462 17.2106 15.1658C15.6126 15.1951 14.3472 16.5266 14.3775 18.1371C14.4531 21.9504 19.8269 25.0001 19.8269 25.0001C19.8269 25.0001 25.0747 21.7497 24.9991 17.9364C24.9688 16.3259 23.6481 15.0434 22.0551 15.0728Z" stroke="#9D9D9D" stroke-width="1.5" stroke-miterlimit="10" stroke-linecap="round" stroke-linejoin="round"/>
</svg>
