<svg width="35" height="21" viewBox="0 0 35 21" fill="none" xmlns="http://www.w3.org/2000/svg">
<defs>
<linearGradient id="paint0_linear" x1="5.1804" y1="0" x2="5.1804" y2="11.1768" gradientUnits="userSpaceOnUse">
<stop stop-color="#6393E7"/>
<stop offset="1" stop-color="#FF7CE8"/>
</linearGradient>
<linearGradient id="paint1_linear" x1="17.5001" y1="0.114258" x2="17.5001" y2="14.5354" gradientUnits="userSpaceOnUse">
<stop stop-color="#6393E7"/>
<stop offset="1" stop-color="#FF7CE8"/>
</linearGradient>
<linearGradient id="paint2_linear" x1="29.8141" y1="0" x2="29.8141" y2="11.1768" gradientUnits="userSpaceOnUse">
<stop stop-color="#6393E7"/>
<stop offset="1" stop-color="#FF7CE8"/>
</linearGradient>
<linearGradient id="paint3_linear" x1="2.17235" y1="17.2644" x2="2.17235" y2="20.9999" gradientUnits="userSpaceOnUse">
<stop stop-color="#6393E7"/>
<stop offset="1" stop-color="#FF7CE8"/>
</linearGradient>
<linearGradient id="paint4_linear" x1="9.53034" y1="17.2546" x2="9.53034" y2="20.9852" gradientUnits="userSpaceOnUse">
<stop stop-color="#6393E7"/>
<stop offset="1" stop-color="#FF7CE8"/>
</linearGradient>
<linearGradient id="paint5_linear" x1="17.0044" y1="17.2839" x2="17.0044" y2="20.98" gradientUnits="userSpaceOnUse">
<stop stop-color="#6393E7"/>
<stop offset="1" stop-color="#FF7CE8"/>
</linearGradient>
<linearGradient id="paint6_linear" x1="23.4659" y1="15.8804" x2="23.4659" y2="20.9603" gradientUnits="userSpaceOnUse">
<stop stop-color="#6393E7"/>
<stop offset="1" stop-color="#FF7CE8"/>
</linearGradient>
<linearGradient id="paint7_linear" x1="31.5516" y1="17.2991" x2="31.5516" y2="20.9899" gradientUnits="userSpaceOnUse">
<stop stop-color="#6393E7"/>
<stop offset="1" stop-color="#FF7CE8"/>
</linearGradient>
</defs>
<path d="M3.81741 6.65746C3.34287 6.65746 2.85252 6.27051 2.85252 5.53631C2.85252 4.78226 3.34287 4.47469 3.81741 4.47469H8.1041C7.98282 3.00628 7.11811 2.23734 5.52049 2.23734C3.88069 2.23734 2.39907 2.97155 2.39907 5.55615C2.39907 8.20028 3.85432 8.99402 5.80521 8.99402C6.83338 8.99402 7.58737 8.68645 8.22537 8.31935C8.45209 8.1854 8.67882 8.10603 8.92136 8.10603C9.49608 8.10603 9.98644 8.55251 9.98644 9.14781C9.98644 9.57444 9.86517 9.80264 9.55408 10.0358C9.02154 10.4624 7.85101 11.1768 5.79994 11.1768C1.66089 11.1768 0 8.76582 0 5.56111C0 2.23734 1.72416 0 5.47831 0C8.28864 0 10.3608 1.79583 10.3608 5.02038C10.3608 5.86869 9.99171 6.66242 8.82118 6.66242H3.81741V6.65746Z" fill="url(#paint0_linear)"/>
<path d="M20.5161 0.774051C20.6585 0.406948 21.0065 0.119219 21.5443 0.119219C22.0979 0.119219 22.9995 0.406948 22.9995 1.18084C22.9995 1.33463 22.9152 1.66204 22.8361 1.83567L18.8763 11.0232C17.7058 13.573 16.0449 14.5354 14.5053 14.5354C13.8883 14.5354 13.2556 14.4759 12.76 14.2824C12.3487 14.1287 12.0007 13.7616 12.0007 13.2804C12.0007 12.4717 12.5122 12.0848 13.0289 12.0848C13.2134 12.0848 13.3347 12.1245 13.4982 12.1642C13.804 12.2435 14.0518 12.3179 14.4209 12.3179C15.1591 12.3179 15.8972 11.8169 16.493 10.3683L16.6143 10.0806L12.7389 1.81583C12.6387 1.60251 12.5965 1.42888 12.5965 1.19572C12.5965 0.65499 13.1291 0.114258 13.9727 0.114258C14.5053 0.114258 14.9165 0.367261 15.1432 0.88815L17.8903 7.33726L20.5161 0.774051Z" fill="url(#paint1_linear)"/>
<path d="M28.4511 6.65746C27.9766 6.65746 27.4862 6.27051 27.4862 5.53631C27.4862 4.78226 27.9766 4.47469 28.4511 4.47469H32.7378C32.6165 3.00628 31.7518 2.23734 30.1542 2.23734C28.5144 2.23734 27.0328 2.97155 27.0328 5.55615C27.0328 8.20028 28.488 8.99402 30.4389 8.99402C31.4671 8.99402 32.2211 8.68645 32.8591 8.31935C33.0858 8.1854 33.3125 8.10603 33.555 8.10603C34.1298 8.10603 34.6201 8.55251 34.6201 9.14781C34.6201 9.57444 34.4989 9.80264 34.1878 10.0358C33.6552 10.4624 32.4847 11.1768 30.4336 11.1768C26.2893 11.1768 24.6284 8.76582 24.6284 5.56111C24.639 2.23734 26.3631 0 30.1173 0C32.9276 0 34.9998 1.79583 34.9998 5.02038C34.9998 5.86869 34.6307 6.66242 33.4601 6.66242H28.4511V6.65746Z" fill="url(#paint2_linear)"/>
<path d="M3.26379 17.5025C3.40616 17.5819 3.49579 17.6811 3.49579 17.8101C3.49579 18.0333 3.33234 18.2119 3.1267 18.2119C3.03707 18.2119 2.98434 18.1921 2.94743 18.1871C2.77871 18.1028 2.53616 17.9986 2.23035 17.9986C1.92981 17.9986 1.64508 18.0829 1.64508 18.3211C1.64508 18.5592 1.89817 18.6584 2.24617 18.7229L2.58362 18.7923C3.20052 18.9164 3.61179 19.2487 3.61179 19.8391C3.61179 20.484 3.16361 20.9999 2.10908 20.9999C1.61345 20.9999 1.218 20.9106 0.922726 20.7221C0.801455 20.6576 0.73291 20.5485 0.73291 20.4245C0.73291 20.1367 0.938544 19.9929 1.12309 19.9929C1.17054 19.9929 1.22854 19.9978 1.28127 20.0326C1.47108 20.1467 1.85072 20.2508 2.09853 20.2508C2.57835 20.2508 2.83143 20.1169 2.83143 19.8689C2.83143 19.6357 2.58362 19.5166 2.18817 19.4422L1.84017 19.3728C1.18109 19.2438 0.812 18.8965 0.812 18.2814C0.812 17.6117 1.38145 17.2644 2.24617 17.2644C2.72598 17.2644 3.04234 17.3785 3.26379 17.5025Z" fill="url(#paint3_linear)"/>
<path d="M10.7615 17.5374C10.8564 17.587 10.9408 17.6912 10.9408 17.8549C10.9408 18.0037 10.7984 18.2071 10.5981 18.2071C10.5453 18.2071 10.4821 18.2022 10.4082 18.1674C10.2342 18.0781 10.0813 18.0186 9.79134 18.0186C9.28517 18.0186 8.80535 18.2319 8.80535 19.1001C8.80535 19.9732 9.28517 20.246 9.8757 20.246C10.1288 20.246 10.3081 20.1865 10.4768 20.0724C10.5612 20.0228 10.6297 20.0079 10.6982 20.0079C10.925 20.0079 11.0568 20.246 11.0568 20.38C11.0568 20.4941 11.0357 20.5734 10.8828 20.6875C10.6508 20.8761 10.3081 20.9852 9.84934 20.9852C8.8159 20.9852 8.00391 20.4445 8.00391 19.0852C8.00391 17.7755 8.80535 17.2546 9.73861 17.2546C10.2659 17.2646 10.5506 17.3886 10.7615 17.5374Z" fill="url(#paint4_linear)"/>
<path d="M16.4613 17.5719V17.6761C16.5984 17.4627 17.0255 17.304 17.3893 17.304C17.6951 17.304 17.9904 17.3536 18.1907 17.4677C18.3226 17.5471 18.3647 17.6413 18.3647 17.7951C18.3647 17.9638 18.2487 18.1821 18.022 18.1821C17.8849 18.1821 17.7795 18.0928 17.3629 18.0928C16.9938 18.0928 16.5826 18.3061 16.4666 18.5938V20.6823C16.4666 20.9006 16.282 20.98 16.0606 20.98C15.8286 20.98 15.644 20.9006 15.644 20.6823V17.5719C15.644 17.3586 15.8286 17.2842 16.0606 17.2842C16.2451 17.2792 16.4613 17.3586 16.4613 17.5719Z" fill="url(#paint5_linear)"/>
<path d="M23.4633 15.8804C23.7533 15.8804 23.9748 16.0887 23.9748 16.3566C23.9748 16.6195 23.748 16.8229 23.4633 16.8229C23.168 16.8229 22.9571 16.6245 22.9571 16.3566C22.9519 16.0887 23.168 15.8804 23.4633 15.8804ZM23.0415 17.5869C23.0415 17.3984 23.1838 17.2793 23.4528 17.2793C23.7217 17.2793 23.8798 17.4034 23.8798 17.5869V20.6428C23.8798 20.8313 23.7269 20.9603 23.4633 20.9603C23.1997 20.9603 23.0468 20.8313 23.0468 20.6428V17.5869H23.0415Z" fill="url(#paint6_linear)"/>
<path d="M34.0562 18.4946V20.6923C34.0562 20.9205 33.8663 20.9751 33.6449 20.9751C33.4182 20.9751 33.2336 20.9155 33.2336 20.6923V18.6236C33.2336 18.2764 33.0438 18.0382 32.6167 18.0382C32.1844 18.0382 31.9735 18.2764 31.9735 18.579V20.6923C31.9735 20.9205 31.7889 20.9899 31.5675 20.9899C31.3407 20.9899 31.1562 20.9205 31.1562 20.6923V18.6236C31.1562 18.2813 30.9506 18.0283 30.5129 18.0283C30.0647 18.0283 29.8802 18.2813 29.8802 18.579V20.6923C29.8802 20.8907 29.7009 20.9899 29.4637 20.9899C29.2264 20.9899 29.0471 20.8907 29.0471 20.6923V17.5967C29.0471 17.3784 29.2369 17.2991 29.4584 17.2991C29.6798 17.2991 29.8855 17.3784 29.8855 17.5868C30.07 17.3884 30.3389 17.2991 30.7291 17.2991C31.0876 17.2991 31.4884 17.4628 31.694 17.7059C31.926 17.4479 32.2793 17.2991 32.7696 17.2991C33.5236 17.2991 34.0562 17.7704 34.0562 18.4946Z" fill="url(#paint7_linear)"/>
</svg>
