<svg width="30" height="28" viewBox="0 0 30 28" fill="none" xmlns="http://www.w3.org/2000/svg">
<defs>
<linearGradient id="paint0_linear" x1="1.19085" y1="13.9355" x2="28.8077" y2="13.9355" gradientUnits="userSpaceOnUse">
<stop offset="0.00106246" stop-color="#6393E7"/>
<stop offset="1" stop-color="#FF7CE8"/>
</linearGradient>
</defs>
<path d="M14.9946 1.92773C7.81992 1.92773 2 7.30447 2 13.9335C2 16.5644 2.93205 18.9885 4.48186 20.9646C4.54689 21.6424 4.70945 23.9632 3.91829 25.2844C3.74488 25.5831 3.9508 25.9507 4.27594 25.9162C5.26218 25.8128 7.35389 25.3533 8.45935 24.641C8.56773 24.5721 8.63276 24.5031 8.69779 24.4227C10.5619 25.3878 12.7078 25.9277 15.0054 25.9277C22.1801 25.9277 28 20.551 28 13.922C28 7.29298 22.1801 1.92773 14.9946 1.92773Z" stroke="url(#paint0_linear)" stroke-width="2.5" stroke-miterlimit="10"/>
<path d="M9.65172 15.3237C10.376 15.3237 10.9631 14.7013 10.9631 13.9336C10.9631 13.1658 10.376 12.5435 9.65172 12.5435C8.92746 12.5435 8.34033 13.1658 8.34033 13.9336C8.34033 14.7013 8.92746 15.3237 9.65172 15.3237Z" fill="#B787E8"/>
<path d="M14.9945 15.3237C15.7187 15.3237 16.3059 14.7013 16.3059 13.9336C16.3059 13.1658 15.7187 12.5435 14.9945 12.5435C14.2702 12.5435 13.6831 13.1658 13.6831 13.9336C13.6831 14.7013 14.2702 15.3237 14.9945 15.3237Z" fill="#B787E8"/>
<path d="M20.3485 15.3237C21.0727 15.3237 21.6599 14.7013 21.6599 13.9336C21.6599 13.1658 21.0727 12.5435 20.3485 12.5435C19.6242 12.5435 19.0371 13.1658 19.0371 13.9336C19.0371 14.7013 19.6242 15.3237 20.3485 15.3237Z" fill="#B787E8"/>
</svg>
