<svg width="183" height="234" viewBox="0 0 183 234" fill="none" xmlns="http://www.w3.org/2000/svg">
<g clip-path="url(#clip0_1:4047)">
<path d="M46.8093 103.208C46.827 103.128 46.8566 103.036 46.8744 102.956L46.8684 102.959C46.8684 102.959 46.0492 101.738 41.7664 101.277C41.7368 101.378 41.4765 101.453 41.4469 101.554C38.8323 105.546 38.4212 107.085 38.2023 109.731C37.9835 112.378 38.0958 113.34 39.8764 114.579C41.654 115.818 42.7306 113.718 42.7306 113.718C43.3724 109.547 44.7004 107.423 44.7004 107.423C44.7004 107.423 45.4872 108.023 45.2032 109.987C44.9193 111.95 46.1231 111.656 46.1231 111.656C46.1231 111.656 46.83 111.288 46.9927 108.849C47.1583 106.41 46.8093 103.214 46.8093 103.208Z" fill="#F9B9A8"/>
<path opacity="0.07" d="M63.9577 182.166C63.9577 188.205 50.3995 193.1 33.6795 193.1C16.9566 193.1 3.4043 188.205 3.4043 182.166C3.4043 176.13 16.9595 171.231 33.6795 171.231C50.3995 171.231 63.9577 176.13 63.9577 182.166Z" fill="#2C788F"/>
<path d="M53.106 178.996C51.7189 177.829 46.5281 175.77 45.904 175.31C45.2799 174.847 45.5195 172.542 45.5195 172.542L36.5044 172.583C35.5668 177.312 36.5399 181.551 36.5399 181.551C42.0294 183.372 50.7369 184.806 52.7837 184.29C54.8274 183.773 54.4903 180.161 53.106 178.996Z" fill="#5A74B7"/>
<path d="M54.0165 183.06C44.4217 183.003 38.2253 180.882 36.2998 180.113C36.4152 181.01 36.5364 181.548 36.5364 181.548C42.0259 183.369 50.7364 184.803 52.7802 184.287C53.4191 184.129 53.8006 183.654 54.0165 183.06Z" fill="#59559D"/>
<path d="M33.3512 183.467C32.0764 182.181 27.0897 179.662 26.5071 179.145C25.9244 178.628 26.371 176.356 26.371 176.356L17.3884 175.586C16.0338 180.211 16.6224 184.518 16.6224 184.518C21.9285 186.826 30.4734 189.039 32.5556 188.71C34.6408 188.383 34.629 184.756 33.3512 183.467Z" fill="#5A74B7"/>
<path d="M33.8922 187.664C24.9392 186.865 18.586 184.183 16.5215 183.199C16.5599 184.022 16.625 184.521 16.625 184.521C21.9312 186.829 30.476 189.042 32.5582 188.713C33.1882 188.615 33.623 188.211 33.8922 187.664Z" fill="#59559D"/>
<path d="M23.6938 54.7276C25.7199 53.8929 25.8914 53.2512 25.8914 53.2512C26.4504 51.0501 26.5451 49.0332 26.5451 49.0332L35.785 51.0026C35.5957 51.7036 35.5928 52.8651 35.6578 54.0503C36.0512 54.1097 36.3677 54.0533 36.3677 54.0533L37.8791 55.8029L38.4322 60.0031L31.2035 63.1517L25.3147 60.0447C25.3147 60.0447 21.6678 55.5652 23.6938 54.7276Z" fill="#F6A3A8"/>
<path d="M43.8542 100.971C43.8542 100.971 46.0163 140.924 46.4333 174.324C46.4333 174.324 42.0678 176.48 35.0018 175.09C35.0018 175.09 34.3866 130.275 31.5442 112.093L29.1484 105.377L30.4055 101.221L42.887 97.9653L43.8542 100.971Z" fill="#494DA5"/>
<path d="M17.1788 100.101C17.1788 100.101 17.5308 140.728 17.5308 145.228C17.5308 149.728 16.0371 177.38 16.0371 177.38C16.0371 177.38 18.5748 180.303 27.7438 179.18L29.5923 148.79L32.1005 110.572L31.2487 104.589L17.1788 100.101Z" fill="#494DA5"/>
<path d="M28.8614 102.18C28.8614 102.18 34.4485 103.211 39.6008 100.775L38.8762 97.9624L28.8584 99.305V102.18H28.8614Z" fill="#3D3E5A"/>
<path d="M25.4929 53.7295L25.6467 54.1067C36.3448 59.6407 35.6586 54.0503 35.6586 54.0503L36.3685 54.0533L38.5158 57.0237L40.2786 56.6613L38.8175 103.244C33.2185 105.745 28.8618 104.744 28.8618 104.744L25.6053 88.656L22.8369 56.6613L25.4929 53.7295Z" fill="#FECC5D"/>
<path d="M42.9107 54.8553L35.6406 53.7266L35.9837 56.7891L36.6433 64.3637C36.6433 64.3637 38.5688 85.4628 38.1399 106.966C38.1074 108.549 39.6838 109.672 41.1568 109.111C42.5055 108.597 43.9518 107.958 44.7415 107.331C44.7386 107.331 47.0722 82.1656 42.9107 54.8553Z" fill="#494DA5"/>
<path d="M25.7976 53.4087C17.7852 54.686 14.8984 56.4237 14.8984 56.4237C14.8984 73.278 16.2679 108.341 16.2679 108.341C17.4362 109.262 23.112 110.302 26.7264 110.884C28.359 111.148 29.8438 109.901 29.8941 108.24C31.1363 68.8045 25.7976 53.4087 25.7976 53.4087Z" fill="#494DA5"/>
<path d="M23.0616 47.4262C23.0616 47.4262 24.8628 54.7157 32.0235 54.3414C40.2873 53.9107 40.5269 43.6329 39.3527 38.8743C38.2554 34.4245 32.4464 29.3748 26.812 33.0819C22.5884 35.8652 21.2515 40.7546 23.0616 47.4262Z" fill="#F9B9A8"/>
<path d="M32.2713 93.275C32.1973 93.2364 32.1204 93.1859 32.0465 93.1443V93.1502C32.0465 93.1502 30.6593 93.6255 29.0977 97.6564C29.1864 97.7128 29.1893 97.9831 29.2781 98.0396C32.431 101.616 33.8063 102.418 36.2908 103.321C38.7783 104.224 39.7307 104.367 41.387 102.965C43.0433 101.563 41.3042 99.9733 41.3042 99.9733C37.4621 98.2624 35.7703 96.4207 35.7703 96.4207C35.7703 96.4207 36.5511 95.8147 38.3642 96.6019C40.1773 97.389 40.2098 96.1444 40.2098 96.1444C40.2098 96.1444 40.0412 95.3632 37.7372 94.5671C35.442 93.774 32.2772 93.278 32.2713 93.275Z" fill="#F9B9A8"/>
<path d="M29.7222 43.0775C29.7222 43.0775 29.2608 46.3509 29.5211 48.6144L28.1723 48.2847C28.1723 48.2847 27.8204 45.6796 27.85 45.0053C27.8795 44.334 26.1256 44.0577 26.0073 45.8459C25.8919 47.6341 26.9153 49.1639 27.6459 49.6837L26.4953 52.6958C26.4953 52.6958 21.7068 49.9689 21.4465 42.8636C21.1862 35.7375 24.8893 31.163 30.3404 31.0739C30.3404 31.0739 39.462 30.5689 40.8048 40.205C40.8048 40.2021 38.2611 42.6497 29.7222 43.0775Z" fill="#494865"/>
<path d="M19.3016 77.5702L32.3865 93.67L29.2809 98.0396L9.63281 80.5912L14.8976 56.4236L24.9804 62.3229L19.3016 77.5702Z" fill="#494DA5"/>
<path d="M43.0408 99.2367L47.8235 75.5503L39.8672 64.8359L42.9107 54.8552L58.1873 72.2294L47.4981 104.079L43.0408 99.2367Z" fill="#494DA5"/>
<path d="M108.992 0.294126C108.205 -0.166293 107.114 -0.103914 105.913 0.594142L48.3407 33.9731C45.9568 35.3543 44.0195 38.7258 44.0284 41.4616L44.3833 167.412C44.3862 168.769 44.8683 169.729 45.6433 170.18L48.5034 171.849C47.7285 171.398 47.2463 170.438 47.2434 169.081L46.8885 43.131C46.8796 40.3952 48.8169 37.0267 51.2008 35.6425L108.77 2.26353C109.971 1.56845 111.062 1.50607 111.849 1.96352L108.992 0.294126Z" fill="#DCDCDC"/>
<path d="M108.77 2.26365C111.154 0.882387 113.103 1.99631 113.112 4.73209L113.467 130.682C113.476 133.418 111.539 136.786 109.155 138.168L51.5856 171.549C49.2016 172.931 47.2525 171.817 47.2436 169.081L46.8887 43.1311C46.8798 40.3953 48.8171 37.0268 51.2011 35.6426L108.77 2.26365Z" fill="#F8F8F8"/>
<path d="M121.478 53.7444C122.36 53.2335 123.061 53.6493 123.064 54.6504C123.067 55.6514 122.369 56.8634 121.487 57.3773L64.7346 90.2839C63.868 90.7859 63.1641 90.3849 63.1611 89.3838C63.1582 88.3828 63.8562 87.153 64.7228 86.651L121.478 53.7444Z" fill="#9AD2FF"/>
<path d="M121.458 46.4639C122.339 45.953 123.04 46.3688 123.043 47.3699C123.046 48.3709 122.348 49.5977 121.467 50.1116L64.7141 83.0182C63.8475 83.5202 63.1436 83.1043 63.1406 82.1033C63.1377 81.1023 63.8357 79.8725 64.7023 79.3705L121.458 46.4639Z" fill="#9AD2FF"/>
<path d="M121.174 52.7968C120.887 52.6305 120.49 52.6542 120.047 52.9097L63.2941 85.8163C62.4275 86.3183 61.7295 87.5481 61.7324 88.5491C61.7324 89.0482 61.9069 89.3957 62.1879 89.5591L63.6195 90.3938C63.3385 90.2304 63.164 89.8799 63.164 89.3838C63.161 88.3828 63.859 87.153 64.7256 86.651L121.478 53.7444C121.919 53.4889 122.315 53.4652 122.602 53.6315L121.174 52.7968Z" fill="#8CC1E5"/>
<path d="M63.6058 83.1251C63.3219 82.9588 63.1444 82.6053 63.1444 82.1033C63.1415 81.1023 63.8395 79.8725 64.7061 79.3705L121.459 46.4639C121.9 46.2084 122.299 46.1847 122.583 46.351L121.154 45.5163C120.867 45.35 120.471 45.3737 120.03 45.6292L63.2746 78.5358C62.408 79.0378 61.7099 80.2676 61.7129 81.2686C61.7159 81.7706 61.8904 82.1241 62.1743 82.2905L63.6058 83.1251Z" fill="#8CC1E5"/>
<path d="M63.5844 75.8445C63.3004 75.6782 63.123 75.3247 63.12 74.8227C63.1171 73.8216 63.8151 72.5919 64.6817 72.0899L104.102 49.2322C104.537 48.9798 104.927 48.959 105.211 49.1253L103.78 48.2906C103.496 48.1243 103.102 48.1451 102.671 48.3975L63.2502 71.2552C62.3806 71.7572 61.6855 72.9869 61.6885 73.988C61.6914 74.49 61.8659 74.8435 62.1528 75.0098L63.5844 75.8445Z" fill="#8CC1E5"/>
<path d="M104.105 49.2323C104.972 48.7303 105.676 49.1462 105.679 50.1472C105.682 51.1483 104.984 52.378 104.117 52.88L64.6966 75.7376C63.83 76.2396 63.126 75.8238 63.1231 74.8227C63.1201 73.8217 63.8181 72.5919 64.6847 72.0899L104.105 49.2323Z" fill="#9AD2FF"/>
<path d="M80.5735 51.1957L119.979 28.347C120.417 28.0946 120.813 28.0708 121.103 28.2401L122.535 29.0748C122.248 28.9055 121.849 28.9293 121.411 29.1817L82.0051 52.0304C81.1237 52.5414 80.4257 53.7681 80.4286 54.7722C80.4316 55.2712 80.6061 55.6247 80.89 55.791L79.4585 54.9563C79.1745 54.79 79 54.4365 78.9971 53.9375C78.9941 52.9335 79.6921 51.7067 80.5735 51.1957Z" fill="#8CC1E5"/>
<path d="M82.0023 52.0305C81.1209 52.5414 80.4228 53.7682 80.4258 54.7722C80.4287 55.7732 81.1297 56.1891 82.0111 55.6782L121.417 32.8295C122.283 32.3275 122.996 31.0918 122.993 30.0907C122.99 29.0897 122.275 28.6798 121.408 29.1818L82.0023 52.0305Z" fill="#9AD2FF"/>
<path d="M80.5382 43.927L102.612 31.1274C103.052 30.8719 103.452 30.8482 103.742 31.0175L105.173 31.8522C104.886 31.6829 104.484 31.7096 104.043 31.9621L81.9698 44.7617C81.1032 45.2637 80.4051 46.4787 80.4081 47.4797C80.4081 47.9876 80.5856 48.3411 80.8666 48.5045L79.435 47.6698C79.1511 47.5035 78.9766 47.15 78.9766 46.645C78.9736 45.644 79.6716 44.429 80.5382 43.927Z" fill="#5CADE5"/>
<path d="M81.9699 44.7618C81.1033 45.2638 80.4053 46.4788 80.4082 47.4798C80.4112 48.4957 81.1122 48.8967 81.9817 48.3947L104.055 35.595C104.922 35.093 105.635 33.8722 105.632 32.8563C105.629 31.8552 104.913 31.4602 104.046 31.9622L81.9699 44.7618Z" fill="#66BBFF"/>
<path d="M70.1688 51.9501C68.7166 52.7907 67.6193 54.5373 67.6282 56.9286C67.6341 59.3049 69.1277 59.3227 69.1277 60.0564C69.1307 61.2238 66.2676 62.7477 64.8213 65.534C66.1227 66.5172 68.0541 66.5053 70.2043 65.2577C72.3546 64.0101 74.2682 61.7942 75.5726 59.299C74.1026 58.2029 71.2395 60 71.2366 58.8326C71.2336 58.0989 72.7214 56.3553 72.7154 53.9759C72.7095 51.5847 71.6063 51.1154 70.1688 51.9501Z" fill="#66BBFF"/>
<path d="M68.7312 48.0499C70.6981 46.9093 72.4816 46.8023 73.7682 47.5539L75.1997 48.3886C73.9101 47.637 72.1296 47.744 70.1627 48.8846C66.2378 51.16 63.073 56.6642 63.0878 61.1941C63.0938 63.2259 63.7474 64.7201 64.827 65.531L63.3954 64.6963C62.3159 63.8854 61.6622 62.3912 61.6563 60.3595C61.6415 55.8295 64.8033 50.3253 68.7312 48.0499Z" fill="#5CADE5"/>
<path d="M70.1599 48.8846C66.235 51.16 63.0702 56.6642 63.085 61.1942C63.0909 63.2259 63.7446 64.7201 64.8242 65.531C66.2705 62.7477 69.1335 61.2209 69.1306 60.0535C69.1276 59.3198 67.6369 59.302 67.631 56.9256C67.6251 54.5344 68.7224 52.7878 70.1717 51.9472C71.6092 51.1125 72.7124 51.5818 72.7213 53.973C72.7272 56.3494 71.2394 58.096 71.2424 58.8297C71.2454 59.9971 74.1084 58.1999 75.5784 59.296C76.6373 57.2435 77.2791 55.0008 77.2732 52.969C77.2554 48.4391 74.0729 46.6182 70.1599 48.8846Z" fill="#9AD2FF"/>
<path d="M107.477 69.7609L120.08 62.4537C120.52 62.1982 120.92 62.1744 121.204 62.3408L122.635 63.1755C122.348 63.0091 121.952 63.0329 121.511 63.2883L108.905 70.5956C108.036 71.0976 107.326 72.3333 107.329 73.3374C107.332 73.8334 107.506 74.1869 107.79 74.3532L106.362 73.5186C106.078 73.3522 105.9 73.0017 105.897 72.5027C105.9 71.4987 106.61 70.2659 107.477 69.7609Z" fill="#5CADE5"/>
<path d="M108.909 70.5957C108.042 71.0977 107.329 72.3334 107.332 73.3374C107.335 74.3414 108.051 74.7484 108.917 74.2434L121.52 66.9361C122.402 66.4252 123.1 65.1984 123.097 64.1944C123.094 63.1904 122.393 62.7775 121.511 63.2884L108.909 70.5957Z" fill="#66BBFF"/>
<path d="M64.7649 96.192C63.8983 96.694 63.1855 97.9298 63.1885 98.9308C63.1914 99.9318 63.9072 100.342 64.7738 99.8397L67.9356 98.007C68.8022 97.505 69.5002 96.2752 69.4973 95.2742C69.4943 94.2731 68.7934 93.8573 67.9238 94.3593L64.7649 96.192Z" fill="#66BBFF"/>
<path d="M63.3362 95.3573L66.498 93.5245C66.9328 93.272 67.3232 93.2512 67.6072 93.4176L69.0358 94.2523C68.7518 94.0859 68.3584 94.1097 67.9266 94.3592L64.7648 96.192C63.8982 96.694 63.1884 97.9297 63.1913 98.9307C63.1943 99.4297 63.3688 99.7803 63.6527 99.9466L62.2212 99.1119C61.9372 98.9456 61.7598 98.595 61.7598 98.096C61.7568 97.095 62.4667 95.8593 63.3362 95.3573Z" fill="#5CADE5"/>
<path d="M72.7922 89.8739L75.954 88.0411C76.3887 87.7886 76.7792 87.7678 77.0631 87.9342L78.4946 88.7689C78.2107 88.6025 77.8173 88.6263 77.3855 88.8758L74.2237 90.7086C73.3541 91.2106 72.6591 92.4404 72.662 93.4414C72.665 93.9434 72.8395 94.2969 73.1234 94.4632L71.6919 93.6285C71.4079 93.4622 71.2305 93.1087 71.2305 92.6067C71.2275 91.6027 71.9255 90.3759 72.7922 89.8739Z" fill="#5CADE5"/>
<path d="M74.2238 90.7086C73.3572 91.2106 72.6592 92.4404 72.6621 93.4415C72.6651 94.4425 73.3661 94.8584 74.2356 94.3563L77.3974 92.5236C78.264 92.0216 78.9621 90.7918 78.9591 89.7908C78.9561 88.7897 78.2552 88.3739 77.3856 88.8759L74.2238 90.7086Z" fill="#66BBFF"/>
<path d="M121.526 70.578C122.405 70.0701 123.109 70.4681 123.112 71.4662L123.215 107.857C123.218 108.858 122.517 110.088 121.639 110.599L64.8831 143.505C64.0164 144.007 63.3155 143.589 63.3125 142.588L63.209 106.197C63.206 105.196 63.9011 103.987 64.7677 103.485L121.526 70.578ZM77.5391 129.984C78.4797 128.163 79.0564 126.167 79.0505 124.361C79.0387 120.336 76.2052 118.717 72.724 120.734C69.2368 122.757 66.424 127.652 66.4329 131.674C66.4388 133.48 67.0274 134.802 67.9768 135.527C69.1333 136.412 70.8458 136.406 72.7654 135.295C74.6672 134.193 76.3738 132.215 77.5391 129.984ZM77.4859 111.79C78.4265 109.969 79.0032 107.976 78.9973 106.167C78.9855 102.142 76.152 100.523 72.6707 102.54C69.1836 104.563 66.3708 109.458 66.3797 113.48C66.3856 115.289 66.9742 116.608 67.9236 117.333C69.0801 118.218 70.7926 118.212 72.7121 117.101C74.614 115.996 76.3206 114.021 77.4859 111.79ZM118.474 106.963C119.341 106.461 120.053 105.228 120.05 104.221C120.047 103.22 119.332 102.81 118.465 103.312L83.7858 123.419C82.9044 123.93 82.2064 125.16 82.2094 126.161C82.2123 127.165 82.9133 127.581 83.7947 127.07L118.474 106.963ZM118.421 88.7691C119.287 88.267 120 87.0343 119.997 86.0273C119.994 85.0263 119.278 84.6342 118.412 85.1392L83.7326 105.246C82.8512 105.757 82.1532 106.969 82.1561 107.967C82.1591 108.971 82.8601 109.387 83.7415 108.876L118.421 88.7691ZM82.1887 118.886C82.1916 119.899 82.8926 120.306 83.774 119.795L99.5416 110.652C100.408 110.15 101.103 108.935 101.1 107.92C101.097 106.916 100.396 106.514 99.5298 107.017L83.7622 116.16C82.8808 116.67 82.1857 117.882 82.1887 118.886ZM83.7119 97.9656C82.8305 98.4765 82.1325 99.6914 82.1354 100.692C82.1384 101.711 82.8394 102.112 83.7208 101.601L99.4884 92.4584C100.355 91.9563 101.05 90.7444 101.047 89.7255C101.044 88.7245 100.343 88.3205 99.4765 88.8225L83.7119 97.9656Z" fill="#D9EEFF"/>
<path d="M121.227 69.6274C120.941 69.4611 120.541 69.4848 120.095 69.7433L63.339 102.65C62.4724 103.152 61.7773 104.364 61.7803 105.362L61.8838 141.75C61.8868 142.252 62.0613 142.605 62.3482 142.772L63.7797 143.606C63.4958 143.44 63.3183 143.084 63.3153 142.585L63.2118 106.197C63.2089 105.196 63.9039 103.987 64.7705 103.485L121.526 70.578C121.97 70.3195 122.372 70.2958 122.659 70.4621L121.227 69.6274Z" fill="#C6D8E5"/>
<path d="M118.466 103.318C119.332 102.816 120.048 103.223 120.051 104.224C120.054 105.225 119.344 106.461 118.475 106.966L83.7953 127.073C82.9139 127.584 82.2129 127.168 82.21 126.167C82.207 125.166 82.905 123.936 83.7864 123.425L118.466 103.318Z" fill="#9AD2FF"/>
<path d="M99.5325 107.019C100.399 106.517 101.103 106.918 101.106 107.919C101.109 108.935 100.411 110.15 99.5443 110.652L83.7797 119.792C82.8983 120.303 82.1973 119.902 82.1943 118.886C82.1914 117.885 82.8894 116.67 83.7708 116.162L99.5325 107.019Z" fill="#66BBFF"/>
<path d="M72.7326 123.473C74.0163 122.73 75.0012 123.131 75.0071 125.252C75.013 127.376 73.682 128.926 73.682 129.583C73.685 130.614 76.2375 129.016 77.5359 129.984C76.3736 132.215 74.667 134.193 72.7622 135.298C70.8456 136.409 69.1331 136.415 67.9736 135.53C69.2632 133.058 71.8157 131.701 71.8128 130.667C71.8098 130.011 70.4759 130.005 70.467 127.884C70.467 125.76 71.449 124.215 72.7326 123.473Z" fill="#66BBFF"/>
<path d="M72.7237 120.737C76.2079 118.717 79.0414 120.339 79.0532 124.361C79.0591 126.17 78.4794 128.166 77.5389 129.987C76.2375 129.019 73.6879 130.62 73.685 129.586C73.682 128.929 75.0159 127.376 75.01 125.255C75.0041 123.131 74.0162 122.73 72.7355 123.476C71.4519 124.218 70.4699 125.763 70.4758 127.884C70.4817 130.008 71.8186 130.011 71.8216 130.667C71.8245 131.698 69.272 133.058 67.9825 135.53C67.033 134.808 66.4444 133.486 66.4415 131.677C66.4237 127.655 69.2395 122.757 72.7237 120.737Z" fill="#9AD2FF"/>
<path d="M118.409 85.1421L83.7328 105.252C82.8484 105.763 82.1504 106.972 82.1563 107.979C82.1563 108.977 82.8573 109.396 83.7416 108.885L118.418 88.7749C119.285 88.2759 120 87.0372 119.994 86.0362C119.997 85.0322 119.279 84.643 118.409 85.1421Z" fill="#9AD2FF"/>
<path d="M99.4797 88.8254C100.346 88.3234 101.05 88.7245 101.053 89.7255C101.056 90.7414 100.358 91.9533 99.4916 92.4583L83.7269 101.598C82.8455 102.109 82.1446 101.708 82.1416 100.692C82.1387 99.6913 82.8367 98.4764 83.7181 97.9655L99.4797 88.8254Z" fill="#66BBFF"/>
<path d="M72.6799 105.279C73.9635 104.536 74.9484 104.937 74.9544 107.058C74.9603 109.182 73.6293 110.732 73.6293 111.389C73.6323 112.42 76.1848 110.821 77.4832 111.79C76.3208 114.021 74.6142 115.999 72.7094 117.104C70.7928 118.215 69.0803 118.221 67.9209 117.336C69.2105 114.864 71.763 113.507 71.76 112.473C71.7571 111.817 70.4231 111.811 70.4143 109.69C70.4172 107.566 71.3992 106.021 72.6799 105.279Z" fill="#66BBFF"/>
<path d="M72.6739 102.543C76.1581 100.523 78.9916 102.145 79.0034 106.167C79.0093 107.976 78.4296 109.972 77.489 111.793C76.1876 110.824 73.6381 112.426 73.6351 111.392C73.6322 110.735 74.9661 109.182 74.9602 107.061C74.9543 104.937 73.9664 104.536 72.6857 105.282C71.4021 106.024 70.4201 107.569 70.426 109.69C70.4319 111.814 71.7688 111.817 71.7718 112.473C71.7747 113.504 69.2222 114.864 67.9327 117.336C66.9832 116.614 66.3946 115.292 66.3917 113.483C66.3739 109.461 69.1867 104.563 72.6739 102.543Z" fill="#9AD2FF"/>
<path d="M164.867 212.007C165.142 212.173 165.37 212.411 165.509 212.699C166.006 213.724 166.192 214.942 166.177 215.64C166.159 216.563 165.52 217.392 164.536 217.749C163.048 218.289 160.794 218.571 159.061 217.835C156.911 216.923 156.911 215.158 156.656 214.092C156.579 213.768 156.405 213.477 156.165 213.248C155.645 212.749 154.743 212.215 152.273 211.398C148.981 210.284 148.65 207.711 148.866 205.766C148.978 204.765 149.907 204.064 150.892 204.248C151.782 204.414 153.083 204.89 154.976 205.986L164.867 212.007Z" fill="#011C2C"/>
<path d="M132.072 220.196C132.072 220.196 126.665 220.404 124.13 220.603C121.598 220.802 118.806 221.907 121.276 225.828C123.062 228.318 126.706 229.289 129.339 229.051C131.971 228.814 133.243 229.158 133.243 229.158C133.163 229.604 134.112 230.236 135.659 230.667C137.032 231.05 139.7 231.285 141.329 230.002C141.758 229.666 142.01 229.152 142.027 228.606C142.089 226.749 141.631 222.371 141.631 222.371L132.072 220.196Z" fill="#011C2C"/>
<path d="M126.162 130.56C126.162 130.56 126.408 175.105 132.027 220.779C132.137 221.664 132.651 222.451 133.426 222.89C135.127 223.862 138.348 224.997 141.625 222.4C142.362 221.818 142.746 220.897 142.669 219.959C141.986 211.704 138.629 168.175 142.187 151.511C142.187 151.511 144.657 170.037 156.567 211.493C156.777 212.224 157.28 212.838 157.958 213.177C159.635 214.018 162.927 215.028 165.571 211.93C166.13 211.273 166.34 210.382 166.142 209.541L159.081 179.168C159.081 179.168 156.783 170.878 157.919 167.462C159.052 164.046 161.548 137.85 154.29 132.384L126.162 130.56Z" fill="#3D0871"/>
<path d="M133.569 223.606C133.492 223.606 133.427 223.547 133.418 223.47C129.928 184.295 128.875 160.719 128.608 147.839C128.319 133.878 128.863 129.116 128.869 129.072C128.878 128.989 128.957 128.929 129.037 128.938C129.12 128.947 129.179 129.024 129.17 129.107C129.164 129.155 128.623 133.905 128.913 147.857C129.182 160.731 130.232 184.292 133.722 223.443C133.728 223.526 133.669 223.6 133.586 223.606C133.577 223.606 133.571 223.606 133.569 223.606Z" fill="#E4D1F9"/>
<path d="M158.904 216.581C158.839 216.581 158.777 216.537 158.759 216.471C147.99 178.907 143.376 151.79 143.331 151.519C143.317 151.436 143.373 151.359 143.456 151.344C143.539 151.332 143.615 151.386 143.63 151.469C143.675 151.739 148.286 178.842 159.052 216.388C159.075 216.468 159.028 216.551 158.948 216.575C158.933 216.581 158.919 216.581 158.904 216.581Z" fill="#E4D1F9"/>
<path d="M146.703 174.618C146.706 174.63 146.709 174.641 146.712 174.653C146.709 174.641 146.706 174.63 146.703 174.618Z" fill="#758AC8"/>
<path d="M146.674 174.505C146.674 174.511 146.677 174.517 146.677 174.523C146.677 174.514 146.677 174.511 146.674 174.505Z" fill="#758AC8"/>
<path opacity="0.8" d="M148.028 151.989C152.506 150.78 154.21 147.72 154.21 147.72C151.639 150.605 142.181 151.511 142.181 151.511C142.181 151.511 144.227 164.081 146.384 172.663L146.83 153.539C146.848 152.815 147.333 152.176 148.028 151.989Z" fill="#250644"/>
<path d="M109.087 106.339C109.087 106.339 107.513 102.121 107.034 98.5625C106.555 95.0039 100.675 90.067 104.426 86.2262C108.176 82.3854 105.479 87.0431 110.069 90.7502C114.662 94.4573 112.127 97.2911 112.734 99.21C113.343 101.129 114.863 105.427 114.863 105.427L109.087 106.339Z" fill="#A26169"/>
<path d="M156.327 84.4707C156.327 84.4707 164.494 88.46 164.009 113.112C164.009 113.18 164.003 113.245 163.997 113.314C163.884 114.44 162.681 123.948 153.725 128.086L156.327 84.4707Z" fill="#AEB9CA"/>
<path d="M166.2 101.794C166.046 101.794 165.916 101.759 165.804 101.69C165.467 101.485 165.437 101.064 165.408 100.66C165.36 99.9852 165.283 99.5278 164.665 99.2991C164.328 99.1743 164.026 99.1862 163.742 99.3377C162.905 99.7803 162.53 101.239 162.527 101.254C162.485 101.417 162.323 101.515 162.16 101.473C161.997 101.432 161.9 101.268 161.941 101.105C161.959 101.034 162.385 99.3733 163.458 98.803C163.896 98.5713 164.369 98.5475 164.872 98.7317C165.904 99.1119 165.97 100.018 166.011 100.618C166.026 100.823 166.046 101.132 166.117 101.173C166.132 101.182 166.277 101.254 166.886 100.986C167.809 100.579 168.197 100.128 168.478 99.7981C168.939 99.2575 169.256 98.9753 170.409 99.4832C170.563 99.5516 170.631 99.7298 170.566 99.8813C170.498 100.036 170.32 100.104 170.17 100.039C169.371 99.6882 169.297 99.7743 168.939 100.193C168.637 100.547 168.182 101.081 167.132 101.542C166.739 101.708 166.44 101.794 166.2 101.794Z" fill="#F7F8FA"/>
<path d="M164.18 119.376C164.115 119.376 164.05 119.355 163.994 119.311C163.864 119.207 163.84 119.017 163.941 118.886C163.955 118.868 164.322 118.369 164.198 117.665C164.077 116.985 163.541 116.334 162.604 115.737C161.678 115.146 161.154 114.427 161.057 113.605C160.894 112.277 161.906 111.193 161.95 111.148C162.065 111.026 162.255 111.023 162.376 111.139C162.497 111.255 162.5 111.445 162.388 111.567C162.379 111.576 161.527 112.494 161.657 113.536C161.737 114.169 162.163 114.736 162.929 115.226C164.02 115.922 164.647 116.712 164.795 117.573C164.964 118.544 164.44 119.231 164.417 119.26C164.358 119.335 164.269 119.376 164.18 119.376Z" fill="#F7F8FA"/>
<path d="M157.538 133.979C162.666 119.849 160.714 89.7876 157.898 85.9498C155.083 82.112 149.374 84.9279 148.12 85.7983C146.866 86.6686 137.103 89.7104 137.103 89.7104C124.115 90.9995 118.791 109.378 118.111 111.54C117.431 113.706 117.203 111.311 117.203 111.311C116.727 106.728 115.659 104.488 114.884 103.431C114.47 102.866 113.855 102.471 113.172 102.329C110.578 101.779 109.17 102.979 108.469 103.995C108.04 104.616 107.88 105.379 107.999 106.125C108.508 109.289 110.46 119.869 114.308 124.105C118.86 129.116 123.364 120.612 124.878 119.246C126.393 117.879 126.239 119.246 126.239 119.246C126.239 119.246 122.492 139.379 128.088 142.261C133.684 145.142 139.992 139.379 143.148 139.379C146.304 139.379 156.727 136.207 157.538 133.979Z" fill="#CED5DD"/>
<path d="M113.607 114.745C113.453 114.745 113.323 114.71 113.21 114.641C112.873 114.437 112.843 114.015 112.814 113.611C112.767 112.936 112.69 112.479 112.071 112.25C111.734 112.126 111.433 112.137 111.149 112.289C110.451 112.66 110.037 113.795 109.933 114.202C109.892 114.365 109.729 114.463 109.566 114.422C109.404 114.38 109.306 114.217 109.347 114.053C109.365 113.982 109.791 112.322 110.865 111.751C111.302 111.52 111.776 111.496 112.278 111.68C113.311 112.06 113.376 112.966 113.417 113.566C113.432 113.771 113.453 114.08 113.524 114.122C113.538 114.131 113.683 114.202 114.293 113.935C115.216 113.528 115.603 113.076 115.884 112.746C116.345 112.206 116.662 111.924 117.815 112.431C117.969 112.5 118.037 112.678 117.972 112.83C117.904 112.984 117.727 113.052 117.576 112.987C116.777 112.636 116.703 112.723 116.345 113.141C116.044 113.495 115.588 114.03 114.538 114.49C114.145 114.662 113.846 114.745 113.607 114.745Z" fill="#F7F8FA"/>
<path d="M116.419 104.521C116.268 104.521 116.138 104.408 116.12 104.257C116.114 104.206 115.978 102.997 116.86 101.993C117.605 101.144 118.833 100.713 120.501 100.713C120.666 100.713 120.802 100.85 120.802 101.016C120.802 101.182 120.666 101.319 120.501 101.319C119.016 101.319 117.945 101.679 117.318 102.386C116.614 103.182 116.718 104.171 116.718 104.18C116.735 104.346 116.62 104.497 116.455 104.515C116.443 104.518 116.431 104.521 116.419 104.521Z" fill="#F7F8FA"/>
<path d="M111.586 132.331C111.521 132.331 111.456 132.31 111.4 132.265C111.27 132.161 111.246 131.971 111.347 131.84C111.362 131.823 111.731 131.324 111.604 130.62C111.483 129.939 110.945 129.289 110.01 128.692C109.084 128.101 108.561 127.382 108.463 126.559C108.3 125.231 109.312 124.147 109.356 124.102C109.472 123.981 109.664 123.978 109.782 124.094C109.903 124.209 109.906 124.399 109.791 124.521C109.77 124.545 108.933 125.454 109.06 126.491C109.137 127.123 109.566 127.691 110.332 128.181C111.424 128.876 112.051 129.666 112.199 130.528C112.367 131.499 111.844 132.185 111.82 132.215C111.767 132.289 111.675 132.331 111.586 132.331Z" fill="#F7F8FA"/>
<path d="M117.02 137.948C116.266 137.948 115.668 137.612 115.636 137.591C115.491 137.508 115.44 137.324 115.523 137.178C115.606 137.033 115.789 136.982 115.934 137.066C115.946 137.071 116.807 137.55 117.629 137.232C118.194 137.012 118.629 136.463 118.919 135.595C118.972 135.438 119.144 135.352 119.3 135.405C119.457 135.459 119.543 135.631 119.49 135.788C119.141 136.84 118.585 137.517 117.839 137.802C117.558 137.909 117.28 137.948 117.02 137.948Z" fill="#F7F8FA"/>
<path d="M118.108 130.323C117.981 130.323 117.862 130.239 117.821 130.112C117.771 129.951 117.856 129.782 118.016 129.731C118.466 129.586 118.75 129.354 118.859 129.042C119.096 128.362 118.516 127.468 118.51 127.459C118.418 127.319 118.457 127.132 118.596 127.04C118.735 126.948 118.921 126.984 119.013 127.123C119.043 127.171 119.767 128.276 119.43 129.241C119.255 129.743 118.841 130.103 118.2 130.308C118.17 130.317 118.14 130.323 118.108 130.323Z" fill="#F7F8FA"/>
<path d="M122.432 122.302C122.172 122.302 121.933 122.231 121.717 122.091C120.939 121.586 120.791 120.339 120.785 120.285C120.767 120.119 120.886 119.97 121.051 119.95C121.22 119.929 121.368 120.051 121.385 120.217C121.418 120.499 121.601 121.292 122.048 121.583C122.249 121.714 122.489 121.732 122.781 121.637C124.041 121.23 123.725 119.849 123.71 119.789C123.672 119.626 123.769 119.463 123.932 119.424C124.095 119.385 124.257 119.483 124.296 119.647C124.461 120.333 124.393 121.753 122.962 122.213C122.778 122.273 122.601 122.302 122.432 122.302Z" fill="#F7F8FA"/>
<path d="M128.529 111.056C128.375 111.056 128.245 110.94 128.23 110.786C127.996 108.576 126.511 108.49 126.446 108.487C126.281 108.481 126.151 108.341 126.156 108.175C126.162 108.009 126.301 107.875 126.464 107.881C126.485 107.881 128.537 107.967 128.83 110.724C128.848 110.89 128.727 111.038 128.561 111.056C128.552 111.056 128.54 111.056 128.529 111.056Z" fill="#F7F8FA"/>
<path d="M125.502 102.409C125.348 102.409 125.218 102.293 125.203 102.139C124.97 99.9289 123.485 99.8427 123.42 99.8398C123.254 99.8338 123.124 99.6942 123.13 99.5279C123.136 99.3615 123.278 99.2249 123.438 99.2338C123.458 99.2338 125.511 99.32 125.804 102.077C125.822 102.243 125.7 102.391 125.535 102.409C125.526 102.406 125.514 102.409 125.502 102.409Z" fill="#F7F8FA"/>
<path d="M135.18 111.974C135.118 111.974 135.056 111.956 135.003 111.918C134.867 111.82 134.837 111.63 134.935 111.493C135.707 110.424 134.737 109.405 134.695 109.36C134.58 109.241 134.58 109.048 134.701 108.932C134.819 108.817 135.012 108.816 135.127 108.938C135.603 109.428 136.277 110.667 135.423 111.849C135.364 111.933 135.272 111.974 135.18 111.974Z" fill="#F7F8FA"/>
<path d="M133.683 103.983C133.08 103.983 132.246 103.294 131.982 103.063C131.858 102.953 131.846 102.76 131.956 102.635C132.065 102.51 132.257 102.495 132.382 102.608C132.893 103.057 133.532 103.434 133.698 103.378C133.858 103.327 134.026 103.413 134.076 103.574C134.127 103.734 134.041 103.903 133.881 103.954C133.819 103.975 133.754 103.983 133.683 103.983Z" fill="#F7F8FA"/>
<path d="M154.615 132.889C154.125 132.889 153.69 132.693 153.323 132.307C152.533 131.478 152.888 130.601 153.125 130.022C153.211 129.808 153.329 129.517 153.279 129.437C153.261 129.41 153.146 129.28 152.456 129.25C151.4 129.205 150.827 129.449 150.41 129.63C149.732 129.921 149.309 130.037 148.466 129.036C148.36 128.908 148.375 128.715 148.502 128.608C148.629 128.501 148.818 128.516 148.928 128.644C149.522 129.354 149.647 129.3 150.173 129.072C150.617 128.879 151.288 128.59 152.483 128.644C153.208 128.677 153.598 128.816 153.784 129.107C154.003 129.452 153.841 129.856 153.681 130.248C153.412 130.907 153.273 131.377 153.758 131.885C154.021 132.161 154.317 132.286 154.654 132.28C155.485 132.256 156.402 131.377 156.683 131.041C156.789 130.913 156.982 130.899 157.109 131.005C157.236 131.112 157.251 131.305 157.144 131.433C157.094 131.49 155.938 132.85 154.672 132.886C154.654 132.889 154.633 132.889 154.615 132.889Z" fill="#F7F8FA"/>
<path d="M125.482 136.843C124.991 136.843 124.556 136.647 124.189 136.26C123.399 135.432 123.754 134.555 123.991 133.976C124.077 133.762 124.195 133.471 124.145 133.391C124.127 133.364 124.012 133.233 123.323 133.204C122.267 133.159 121.693 133.403 121.276 133.584C120.599 133.875 120.176 133.991 119.333 132.99C119.226 132.862 119.241 132.669 119.368 132.562C119.495 132.455 119.685 132.47 119.794 132.598C120.389 133.308 120.513 133.251 121.039 133.026C121.483 132.832 122.154 132.541 123.349 132.598C124.074 132.63 124.464 132.77 124.651 133.061C124.869 133.406 124.707 133.81 124.547 134.202C124.281 134.861 124.139 135.331 124.624 135.839C124.887 136.115 125.177 136.243 125.52 136.234C126.351 136.21 127.268 135.331 127.549 134.995C127.656 134.867 127.848 134.852 127.975 134.959C128.102 135.066 128.117 135.259 128.011 135.387C127.963 135.444 126.804 136.804 125.538 136.84C125.52 136.843 125.499 136.843 125.482 136.843Z" fill="#F7F8FA"/>
<path d="M143.101 138.616C142.296 138.616 141.394 138.372 140.403 137.882C140.252 137.808 140.193 137.627 140.264 137.475C140.338 137.324 140.519 137.261 140.669 137.336C142.071 138.028 143.249 138.185 144.171 137.805C145.207 137.377 145.556 136.403 145.559 136.394C145.612 136.237 145.783 136.153 145.943 136.207C146.1 136.26 146.183 136.436 146.129 136.593C146.112 136.644 145.689 137.835 144.402 138.366C144 138.533 143.565 138.616 143.101 138.616Z" fill="#F7F8FA"/>
<path d="M161.654 122.011C161.53 122.011 161.415 121.934 161.371 121.812C161.314 121.655 161.394 121.482 161.548 121.423C161.56 121.417 162.787 120.948 163.148 119.905C163.367 119.269 163.225 118.533 162.728 117.716C162.024 116.56 161.799 115.529 162.054 114.656C162.341 113.673 163.142 113.272 163.178 113.254C163.329 113.183 163.509 113.245 163.58 113.394C163.654 113.545 163.589 113.726 163.441 113.798C163.417 113.81 162.838 114.107 162.631 114.834C162.429 115.535 162.636 116.397 163.243 117.395C163.84 118.378 163.997 119.287 163.716 120.104C163.261 121.42 161.817 121.966 161.755 121.987C161.725 122.002 161.69 122.011 161.654 122.011Z" fill="#F7F8FA"/>
<path d="M161.805 106.903C161.708 106.903 161.613 106.856 161.557 106.77C161.551 106.761 160.957 105.905 160.034 105.822C159.398 105.769 158.732 106.083 158.058 106.767C157.94 106.885 157.75 106.885 157.632 106.77C157.514 106.651 157.514 106.461 157.629 106.342C158.44 105.519 159.271 105.142 160.093 105.219C161.303 105.332 162.024 106.386 162.057 106.431C162.151 106.571 162.113 106.758 161.977 106.853C161.924 106.885 161.865 106.903 161.805 106.903Z" fill="#F7F8FA"/>
<path d="M140.045 120.33C139.883 120.33 139.749 120.202 139.744 120.036C139.744 120.027 139.696 118.981 138.96 118.417C138.454 118.028 137.721 117.938 136.789 118.158C136.626 118.197 136.463 118.096 136.425 117.932C136.387 117.769 136.49 117.606 136.65 117.57C137.771 117.309 138.673 117.433 139.329 117.941C140.291 118.684 140.344 119.964 140.344 120.018C140.35 120.184 140.22 120.324 140.051 120.33C140.054 120.33 140.048 120.33 140.045 120.33Z" fill="#F7F8FA"/>
<path d="M154.396 114.95C154.248 114.95 154.118 114.84 154.097 114.686C154.088 114.629 153.92 113.26 154.674 112.515C155.064 112.128 155.615 111.983 156.307 112.087C156.472 112.111 156.585 112.265 156.561 112.431C156.537 112.598 156.384 112.711 156.218 112.687C155.724 112.613 155.345 112.702 155.097 112.948C154.647 113.394 154.653 114.297 154.695 114.609C154.715 114.775 154.6 114.927 154.434 114.95C154.423 114.95 154.408 114.95 154.396 114.95Z" fill="#F7F8FA"/>
<path d="M148.981 120.487C148.948 120.487 148.912 120.481 148.88 120.469C148.723 120.413 148.64 120.241 148.697 120.083C148.797 119.801 148.989 118.966 148.703 118.482C148.572 118.262 148.351 118.132 148.028 118.084C146.647 117.879 146.304 119.338 146.289 119.4C146.254 119.563 146.094 119.667 145.928 119.629C145.765 119.593 145.662 119.43 145.7 119.266C145.86 118.55 146.573 117.255 148.117 117.484C148.623 117.558 148.995 117.79 149.22 118.17C149.714 118.999 149.285 120.235 149.264 120.285C149.22 120.41 149.105 120.487 148.981 120.487Z" fill="#F7F8FA"/>
<path d="M139.096 131.249C139.048 131.249 139.001 131.237 138.957 131.214C138.939 131.205 137.061 130.177 138.049 127.465C138.105 127.307 138.279 127.227 138.436 127.284C138.593 127.34 138.673 127.515 138.617 127.673C137.809 129.889 139.226 130.667 139.238 130.676C139.386 130.753 139.442 130.937 139.365 131.086C139.309 131.19 139.205 131.249 139.096 131.249Z" fill="#F7F8FA"/>
<path d="M133.048 143.55C133.001 143.55 132.953 143.538 132.909 143.514C132.891 143.505 131.013 142.477 132.001 139.765C132.057 139.608 132.232 139.528 132.388 139.584C132.545 139.641 132.625 139.816 132.569 139.973C131.761 142.189 133.178 142.968 133.19 142.976C133.338 143.054 133.394 143.238 133.317 143.386C133.261 143.49 133.157 143.55 133.048 143.55Z" fill="#F7F8FA"/>
<path d="M130.889 124.503C130.762 124.503 130.643 124.423 130.602 124.295C130.38 123.618 130.318 122.151 131.655 121.441C131.803 121.364 131.986 121.42 132.063 121.569C132.14 121.717 132.084 121.901 131.936 121.978C130.717 122.626 131.155 124.049 131.173 124.108C131.223 124.269 131.137 124.438 130.978 124.488C130.951 124.5 130.918 124.503 130.889 124.503Z" fill="#F7F8FA"/>
<path d="M130.551 131.701C130.433 131.701 130.32 131.629 130.273 131.513C129.995 130.839 129.566 130.198 129.38 130.171C129.214 130.147 129.102 129.993 129.125 129.826C129.149 129.66 129.303 129.547 129.468 129.571C130.116 129.666 130.675 130.905 130.832 131.282C130.897 131.436 130.823 131.614 130.669 131.677C130.628 131.695 130.589 131.701 130.551 131.701Z" fill="#F7F8FA"/>
<path d="M158.685 101.369C158.215 101.369 157.795 101.179 157.44 100.808C156.68 100.009 157.02 99.1683 157.248 98.6098C157.325 98.4197 157.44 98.1346 157.396 98.0633C157.387 98.0484 157.286 97.9207 156.624 97.891C155.618 97.8464 155.071 98.0811 154.675 98.2534C154.024 98.5356 153.613 98.6455 152.802 97.6801C152.696 97.5524 152.711 97.3593 152.838 97.2523C152.965 97.1454 153.154 97.1603 153.264 97.288C153.826 97.9563 153.932 97.9118 154.438 97.6949C154.864 97.5108 155.509 97.2316 156.653 97.285C157.351 97.3147 157.727 97.4514 157.907 97.7365C158.12 98.0722 157.964 98.4613 157.81 98.8386C157.555 99.4624 157.422 99.9079 157.881 100.389C158.129 100.651 158.407 100.775 158.727 100.763C159.513 100.74 160.386 99.905 160.658 99.5842C160.764 99.4564 160.957 99.4416 161.084 99.5485C161.211 99.6554 161.226 99.8485 161.119 99.9763C161.072 100.033 159.963 101.334 158.747 101.369C158.721 101.369 158.703 101.369 158.685 101.369Z" fill="#F7F8FA"/>
<path d="M147.824 107.711C147.052 107.711 146.189 107.477 145.242 107.01C145.091 106.936 145.032 106.755 145.103 106.603C145.177 106.452 145.357 106.39 145.508 106.464C146.845 107.123 147.966 107.275 148.842 106.912C149.827 106.505 150.155 105.582 150.158 105.573C150.211 105.415 150.383 105.329 150.542 105.386C150.699 105.439 150.782 105.614 150.729 105.772C150.711 105.819 150.306 106.966 149.072 107.474C148.688 107.634 148.274 107.711 147.824 107.711Z" fill="#F7F8FA"/>
<path d="M158.475 84.23C158.327 84.23 158.197 84.1201 158.176 83.9656C158.171 83.9092 158.005 82.5962 158.733 81.8803C159.108 81.5061 159.638 81.3694 160.303 81.4675C160.469 81.4912 160.581 81.6457 160.557 81.812C160.534 81.9784 160.38 82.0912 160.214 82.0675C159.747 81.9992 159.389 82.0794 159.155 82.3111C158.644 82.816 158.774 83.8765 158.774 83.8854C158.795 84.0517 158.679 84.2032 158.514 84.224C158.502 84.23 158.487 84.23 158.475 84.23Z" fill="#F7F8FA"/>
<path d="M153.3 89.5203C153.267 89.5203 153.232 89.5144 153.199 89.5025C153.042 89.446 152.96 89.2738 153.016 89.1163C153.11 88.849 153.294 88.0559 153.022 87.5984C152.897 87.3935 152.69 87.2717 152.386 87.2241C151.075 87.0281 150.753 88.4123 150.738 88.4688C150.703 88.6321 150.54 88.7361 150.377 88.6975C150.215 88.6618 150.111 88.4985 150.15 88.3351C150.303 87.6459 150.984 86.4013 152.474 86.6211C152.962 86.6924 153.32 86.9152 153.539 87.2835C154.015 88.0826 153.601 89.2678 153.584 89.3153C153.542 89.4431 153.424 89.5203 153.3 89.5203Z" fill="#F7F8FA"/>
<path d="M143.855 99.804C143.808 99.804 143.761 99.7922 143.716 99.7684C143.699 99.7595 141.894 98.7703 142.841 96.1712C142.897 96.0137 143.072 95.9335 143.228 95.99C143.385 96.0464 143.465 96.2217 143.409 96.3791C142.64 98.4881 143.982 99.2248 143.997 99.2307C144.145 99.308 144.201 99.4921 144.124 99.6407C144.068 99.7446 143.965 99.804 143.855 99.804Z" fill="#F7F8FA"/>
<path d="M136.014 93.3583C135.887 93.3583 135.769 93.2781 135.727 93.1503C135.514 92.4998 135.452 91.0888 136.742 90.4056C136.89 90.3284 137.073 90.3848 137.15 90.5334C137.227 90.6819 137.171 90.8661 137.023 90.9433C135.86 91.5611 136.283 92.9038 136.301 92.9632C136.354 93.1236 136.266 93.2929 136.109 93.3464C136.076 93.3523 136.044 93.3583 136.014 93.3583Z" fill="#F7F8FA"/>
<path d="M135.689 100.235C135.571 100.235 135.458 100.164 135.411 100.048C135.151 99.4179 134.74 98.7971 134.568 98.7734C134.402 98.7496 134.29 98.5951 134.314 98.4288C134.337 98.2624 134.491 98.1496 134.657 98.1733C135.284 98.2654 135.819 99.4536 135.97 99.816C136.035 99.9705 135.961 100.149 135.807 100.211C135.769 100.229 135.727 100.235 135.689 100.235Z" fill="#F7F8FA"/>
<path d="M116.493 107.242C116.493 107.242 117.031 109.179 117.23 111.656C117.23 111.656 117.472 112.865 117.839 112.238C117.839 112.238 118.362 114.021 117.342 116.839C116.325 119.655 116.777 108.751 116.493 107.242Z" fill="#AEB9CA"/>
<path d="M130.294 69.1371C129.711 68.4301 128.667 66.8053 129.241 64.7705C129.463 63.9804 130.14 63.4041 130.954 63.309C132.163 63.1665 134.127 62.8367 135.544 62.1001C137.736 60.9624 144.692 59.593 149.078 66.6567C152.915 72.8353 147.573 80.7099 146.18 82.5813C145.961 82.8724 145.668 83.0982 145.334 83.2378C144.251 83.6804 141.675 84.4497 139.253 83.0595C136.076 81.2387 134.944 78.4286 134.716 78.3514C134.583 78.3068 133.53 77.8672 132.687 77.5108C132.024 77.2315 131.56 76.6196 131.468 75.9037L130.735 70.1589C130.681 69.7846 130.534 69.4282 130.294 69.1371Z" fill="#1E2733"/>
<path d="M147.748 88.249C145.745 90.0342 140.569 89.8085 137.1 89.7105C137.174 89.6778 137.245 89.6421 137.313 89.6065C137.319 89.6035 137.325 89.6006 137.328 89.5976C137.393 89.5649 137.455 89.5293 137.517 89.4966C137.526 89.4907 137.535 89.4877 137.544 89.4817C137.6 89.4491 137.656 89.4134 137.712 89.3807C137.724 89.3718 137.736 89.3659 137.748 89.357C137.798 89.3243 137.848 89.2887 137.896 89.253C137.91 89.2441 137.922 89.2322 137.934 89.2233C137.978 89.1906 138.023 89.155 138.064 89.1193C138.079 89.1075 138.094 89.0956 138.106 89.0837C138.144 89.0481 138.182 89.0124 138.218 88.9768C138.233 88.9619 138.248 88.9471 138.262 88.9322C138.295 88.8966 138.327 88.8609 138.36 88.8253C138.375 88.8075 138.389 88.7926 138.401 88.7748C138.431 88.7391 138.458 88.7005 138.481 88.6649C138.496 88.6441 138.508 88.6263 138.52 88.6055C138.543 88.5698 138.564 88.5312 138.585 88.4926C138.597 88.4718 138.608 88.448 138.62 88.4272C138.638 88.3886 138.656 88.35 138.67 88.3084C138.679 88.2847 138.691 88.2609 138.7 88.2371C138.715 88.1985 138.727 88.1569 138.738 88.1153C138.744 88.0886 138.753 88.0619 138.759 88.0351C138.768 87.9935 138.774 87.949 138.783 87.9074C138.789 87.8777 138.792 87.851 138.798 87.8213C138.804 87.7767 138.804 87.7292 138.807 87.6846C138.807 87.6549 138.809 87.6252 138.809 87.5925C138.809 87.545 138.807 87.4945 138.804 87.444C138.801 87.4113 138.801 87.3816 138.798 87.349C138.792 87.2955 138.783 87.2391 138.771 87.1826C138.765 87.1529 138.762 87.1262 138.756 87.0965C138.738 87.0133 138.718 86.9301 138.694 86.841C138.694 86.8351 138.691 86.8321 138.691 86.8262C138.404 85.84 138.008 85.1716 137.473 84.7053C137.271 84.53 137.053 84.3815 136.81 84.2567C136.751 84.227 136.692 84.1973 136.63 84.1676C136.322 84.025 135.982 83.9122 135.603 83.8171C135.529 83.7993 135.452 83.7785 135.373 83.7607C135.216 83.725 135.053 83.6923 134.888 83.6597C134.79 83.6418 134.689 83.624 134.586 83.6062C134.352 83.5646 134.104 83.529 133.846 83.4904C133.71 83.4696 133.568 83.4488 133.426 83.4309C133.29 83.4131 133.151 83.3923 133.009 83.3715C132.867 83.3507 132.722 83.3329 132.572 83.3121C130.383 83.0062 129.942 79.2426 130.061 76.1029C130.061 76.0969 130.061 76.091 130.061 76.085C130.069 75.8563 130.081 75.6335 130.096 75.4137C130.102 75.3276 130.108 75.2414 130.114 75.1583C130.123 75.0216 130.134 74.8879 130.146 74.7572C130.262 73.4621 130.457 72.4165 130.62 72.0007C130.557 71.1036 130.51 70.3758 130.578 69.6213C131.087 70.3224 131.832 70.958 132.752 71.6947C133.27 72.1076 133.503 72.7878 133.335 73.4294C133.036 74.582 132.85 75.6157 132.782 76.0137C132.764 76.1207 132.799 76.2306 132.876 76.3108C133.033 76.4682 133.293 76.4355 133.406 76.2454C133.778 75.6187 134.615 74.4394 135.719 74.3295C137.085 74.1958 138.848 76.2989 137.298 78.1851C136.961 78.5951 136.928 79.1773 137.23 79.6139C138.493 81.4289 140.747 84.0458 145.849 83.0002C145.849 84.5924 146.142 85.5013 146.863 85.8519C146.89 85.8637 146.923 85.8756 146.955 85.8845C146.967 85.8875 146.982 85.8905 146.996 85.8905C147.02 85.8934 147.044 85.8994 147.073 85.9024C147.091 85.9053 147.115 85.9053 147.135 85.9053C147.162 85.9053 147.186 85.9083 147.212 85.9083C147.236 85.9083 147.263 85.9083 147.289 85.9053C147.316 85.9053 147.343 85.9024 147.372 85.9024C147.402 85.8994 147.434 85.8994 147.467 85.8964C147.493 85.8934 147.523 85.8905 147.55 85.8875C147.585 85.8845 147.623 85.8786 147.662 85.8756C147.689 85.8727 147.715 85.8697 147.742 85.8637C147.786 85.8578 147.831 85.8519 147.878 85.8429C147.899 85.84 147.919 85.837 147.943 85.834C147.999 85.8251 148.052 85.8162 148.112 85.8073C148.558 86.3242 148.83 87.1648 147.748 88.249Z" fill="#A26169"/>
<path d="M43.1147 111.19C43.9251 110.72 44.5847 111.104 44.5876 112.033L44.6616 138.613C44.6645 139.543 44.0079 140.683 43.1975 141.156L1.54985 165.302C0.73944 165.772 0.0798684 165.394 0.0769106 164.465L9.95319e-06 137.885C-0.00294777 136.955 0.653666 135.809 1.46408 135.336L43.1147 111.19Z" fill="#71AFFE"/>
<path d="M37.3998 132.954C37.802 132.719 38.1333 132.909 38.1333 133.373L38.1362 133.964C38.1362 134.433 37.8079 135.007 37.4057 135.238L7.18667 152.764C6.78442 152.999 6.45315 152.808 6.45315 152.336L6.4502 151.745C6.4502 151.282 6.7785 150.708 7.18075 150.477L37.3998 132.954Z" fill="#F8F8F8"/>
<path d="M25.2052 135.313C25.572 135.102 25.8766 135.268 25.8766 135.696L25.8796 136.438C25.8796 136.866 25.5779 137.386 25.2111 137.6L7.10991 148.094C6.74019 148.308 6.4385 148.139 6.4385 147.711L6.43555 146.969C6.43555 146.541 6.73132 146.024 7.10399 145.807L25.2052 135.313Z" fill="#F8F8F8"/>
<path d="M37.3734 123.16C37.7757 122.926 38.107 123.116 38.107 123.579L38.1099 124.176C38.1099 124.64 37.7816 125.213 37.3794 125.445L7.15737 142.97C6.75512 143.205 6.42386 143.015 6.42386 142.552L6.4209 141.955C6.4209 141.491 6.74921 140.918 7.15146 140.686L37.3734 123.16Z" fill="#F8F8F8"/>
<path d="M55.644 118.556C56.4544 118.087 57.1139 118.47 57.1169 119.4L57.1908 145.98C57.1938 146.909 56.5372 148.05 55.7268 148.522L14.0792 172.672C13.2687 173.141 12.6092 172.764 12.6062 171.834L12.5293 145.255C12.5263 144.325 13.183 143.178 13.9934 142.706L55.644 118.556Z" fill="#71DCEC"/>
<path d="M37.7345 142.682C38.1013 142.472 38.4059 142.638 38.4059 143.066L38.4089 143.808C38.4089 144.236 38.1072 144.756 37.7404 144.97L19.6392 155.464C19.2724 155.675 18.9678 155.509 18.9678 155.081L18.9648 154.339C18.9648 153.911 19.2665 153.391 19.6333 153.177L37.7345 142.682Z" fill="#F8F8F8"/>
<path d="M49.9027 130.53C50.305 130.296 50.6422 130.483 50.6422 130.946L50.6451 131.543C50.6451 132.007 50.3139 132.583 49.9116 132.815L19.6926 150.337C19.2844 150.575 18.9532 150.385 18.9532 149.921L18.9502 149.324C18.9502 148.861 19.2785 148.288 19.6837 148.053L49.9027 130.53Z" fill="#F8F8F8"/>
<path d="M49.9291 140.324C50.3313 140.089 50.6685 140.276 50.6685 140.74L50.6714 141.331C50.6714 141.8 50.3402 142.376 49.9379 142.608L19.7219 160.131C19.3137 160.368 18.9825 160.178 18.9825 159.709L18.9795 159.118C18.9795 158.654 19.3078 158.081 19.713 157.846L49.9291 140.324Z" fill="#F8F8F8"/>
<path opacity="0.07" d="M183 217.532C183 226.627 166.466 234 146.073 234C125.679 234 109.148 226.627 109.148 217.532C109.148 208.442 125.679 201.067 146.073 201.067C166.466 201.067 183 208.442 183 217.532Z" fill="#2C788F"/>
</g>
<defs>
<clipPath id="clip0_1:4047">
<rect width="183" height="234" fill="white"/>
</clipPath>
</defs>
</svg>
