<svg width="21" height="25" viewBox="0 0 21 25" fill="none" xmlns="http://www.w3.org/2000/svg">
<g clip-path="url(#clip0_7:60)">
<path d="M19.887 23.7345V0.816895H3.58051V6.12596" stroke="black" stroke-width="1.3125" stroke-linecap="round" stroke-linejoin="round"/>
<path d="M3.28127 23.7344V21.7656" stroke="black" stroke-width="1.3125" stroke-linecap="round" stroke-linejoin="round"/>
<path d="M16.2277 11.9488H13.3849L10.8918 9.08752" stroke="black" stroke-width="1.07297" stroke-linecap="round" stroke-linejoin="round"/>
<path d="M10.7592 6.9436C10.7592 6.9436 7.65516 7.67007 6.95626 8.17079C6.0631 8.80998 3.91125 12.0138 3.91125 12.0138" stroke="black" stroke-width="1.07297" stroke-linecap="round" stroke-linejoin="round"/>
<path d="M0.92662 19.7825C0.951866 19.8693 0.994608 19.95 1.05222 20.0197C1.10983 20.0894 1.18109 20.1466 1.26162 20.1877C1.34215 20.2288 1.43024 20.2531 1.52047 20.2589C1.6107 20.2647 1.70117 20.252 1.78631 20.2215L5.02424 19.2286C5.47072 19.0793 5.87381 18.8229 6.19828 18.4818L8.9414 15.7052" stroke="black" stroke-width="1.07297" stroke-linecap="round" stroke-linejoin="round"/>
<path d="M5.9686 15.3934L4.77291 17.2014L1.37551 18.8486C1.19663 18.9188 1.05094 19.0541 0.967679 19.2274C0.884421 19.4006 0.869758 19.5989 0.926631 19.7824" stroke="black" stroke-width="1.07297" stroke-linecap="round" stroke-linejoin="round"/>
<path d="M10.8793 11.8785V13.0663L13.1119 15.816C13.3493 16.2653 13.4876 16.7603 13.5174 17.2676L13.7353 22.1777C13.7812 23.1332 13.293 23.6372 12.8034 23.6372C12.283 23.6372 11.8807 23.1476 11.7928 22.2249L11.2284 17.5787L7.51734 14.4162C7.3345 14.2582 7.18687 14.0636 7.084 13.845C6.98113 13.6264 6.92531 13.3886 6.92015 13.147C6.93823 12.6583 7.0793 12.182 7.33031 11.7623L9.09759 8.57099C9.70987 7.34708 10.3077 6.91199 11.1162 6.91199C11.3083 6.91446 11.498 6.95491 11.6745 7.031C11.8509 7.10709 12.0105 7.21733 12.1441 7.35536C12.2778 7.49339 12.3828 7.65649 12.4531 7.83528C12.5235 8.01406 12.5578 8.20499 12.5541 8.39708" stroke="black" stroke-width="1.07297" stroke-linecap="round" stroke-linejoin="round"/>
<path d="M12.1629 4.84228C12.1629 4.49573 12.2657 4.15696 12.4582 3.86881C12.6508 3.58067 12.9244 3.35608 13.2446 3.22347C13.5648 3.09085 13.9171 3.05615 14.257 3.12376C14.5969 3.19137 14.9091 3.35824 15.1541 3.60329C15.3992 3.84834 15.566 4.16055 15.6337 4.50044C15.7013 4.84033 15.6666 5.19264 15.5339 5.51281C15.4013 5.83298 15.1767 6.10663 14.8886 6.29917C14.6005 6.4917 14.2617 6.59446 13.9151 6.59446" stroke="black" stroke-width="1.07297" stroke-linecap="round" stroke-linejoin="round"/>
</g>
<defs>
<clipPath id="clip0_7:60">
<rect width="21" height="24.2812" fill="white" transform="translate(0 0.109375)"/>
</clipPath>
</defs>
</svg>
